# Blender v3.2.1 OBJ File: ''
# www.blender.org
mtllib disk.mtl
o Cylinder
v 0.000000 -0.261261 -1.000000
v 0.000000 0.261261 -1.000000
v 0.195090 -0.261261 -0.980785
v 0.195090 0.261261 -0.980785
v 0.382683 -0.261261 -0.923880
v 0.382683 0.261261 -0.923880
v 0.555570 -0.261261 -0.831470
v 0.555570 0.261261 -0.831470
v 0.707107 -0.261261 -0.707107
v 0.707107 0.261261 -0.707107
v 0.831470 -0.261261 -0.555570
v 0.831470 0.261261 -0.555570
v 0.923880 -0.261261 -0.382683
v 0.923880 0.261261 -0.382683
v 0.980785 -0.261261 -0.195090
v 0.980785 0.261261 -0.195090
v 1.000000 -0.261261 0.000000
v 1.000000 0.261261 0.000000
v 0.980785 -0.261261 0.195090
v 0.980785 0.261261 0.195090
v 0.923880 -0.261261 0.382683
v 0.923880 0.261261 0.382683
v 0.831470 -0.261261 0.555570
v 0.831470 0.261261 0.555570
v 0.707107 -0.261261 0.707107
v 0.707107 0.261261 0.707107
v 0.555570 -0.261261 0.831470
v 0.555570 0.261261 0.831470
v 0.382683 -0.261261 0.923880
v 0.382683 0.261261 0.923880
v 0.195090 -0.261261 0.980785
v 0.195090 0.261261 0.980785
v -0.000000 -0.261261 1.000000
v -0.000000 0.261261 1.000000
v -0.195090 -0.261261 0.980785
v -0.195090 0.261261 0.980785
v -0.382683 -0.261261 0.923880
v -0.382683 0.261261 0.923880
v -0.555570 -0.261261 0.831470
v -0.555570 0.261261 0.831470
v -0.707107 -0.261261 0.707107
v -0.707107 0.261261 0.707107
v -0.831469 -0.261261 0.555570
v -0.831469 0.261261 0.555570
v -0.923880 -0.261261 0.382684
v -0.923880 0.261261 0.382684
v -0.980785 -0.261261 0.195090
v -0.980785 0.261261 0.195090
v -1.000000 -0.261261 -0.000000
v -1.000000 0.261261 -0.000000
v -0.980785 -0.261261 -0.195090
v -0.980785 0.261261 -0.195090
v -0.923879 -0.261261 -0.382684
v -0.923879 0.261261 -0.382684
v -0.831470 -0.261261 -0.555570
v -0.831470 0.261261 -0.555570
v -0.707107 -0.261261 -0.707107
v -0.707107 0.261261 -0.707107
v -0.555570 -0.261261 -0.831470
v -0.555570 0.261261 -0.831470
v -0.382683 -0.261261 -0.923880
v -0.382683 0.261261 -0.923880
v -0.195090 -0.261261 -0.980785
v -0.195090 0.261261 -0.980785
v 1.250000 0.000000 0.000000
v 1.216506 0.125000 0.000000
v 1.125000 0.216506 0.000000
v 1.000000 0.250000 0.000000
v 0.875000 0.216506 0.000000
v 0.783494 0.125000 0.000000
v 0.750000 0.000000 0.000000
v 0.783494 -0.125000 0.000000
v 0.875000 -0.216506 0.000000
v 1.000000 -0.250000 0.000000
v 1.125000 -0.216506 0.000000
v 1.216506 -0.125000 0.000000
v 1.239306 0.000000 -0.163158
v 1.206099 0.125000 -0.158786
v 1.115376 0.216506 -0.146842
v 0.991445 0.250000 -0.130526
v 0.867514 0.216506 -0.114210
v 0.776791 0.125000 -0.102266
v 0.743584 0.000000 -0.097895
v 0.776791 -0.125000 -0.102266
v 0.867514 -0.216506 -0.114210
v 0.991445 -0.250000 -0.130526
v 1.115376 -0.216506 -0.146842
v 1.206099 -0.125000 -0.158786
v 1.207407 0.000000 -0.323524
v 1.175055 0.125000 -0.314855
v 1.086667 0.216506 -0.291171
v 0.965926 0.250000 -0.258819
v 0.845185 0.216506 -0.226467
v 0.756797 0.125000 -0.202783
v 0.724444 0.000000 -0.194114
v 0.756797 -0.125000 -0.202783
v 0.845185 -0.216506 -0.226467
v 0.965926 -0.250000 -0.258819
v 1.086667 -0.216506 -0.291171
v 1.175055 -0.125000 -0.314855
v 1.154849 0.000000 -0.478354
v 1.123905 0.125000 -0.465537
v 1.039364 0.216506 -0.430519
v 0.923880 0.250000 -0.382683
v 0.808395 0.216506 -0.334848
v 0.723854 0.125000 -0.299830
v 0.692910 0.000000 -0.287013
v 0.723854 -0.125000 -0.299830
v 0.808395 -0.216506 -0.334848
v 0.923880 -0.250000 -0.382683
v 1.039364 -0.216506 -0.430519
v 1.123905 -0.125000 -0.465537
v 1.082532 0.000000 -0.625000
v 1.053525 0.125000 -0.608253
v 0.974279 0.216506 -0.562500
v 0.866025 0.250000 -0.500000
v 0.757772 0.216506 -0.437500
v 0.678525 0.125000 -0.391747
v 0.649519 0.000000 -0.375000
v 0.678525 -0.125000 -0.391747
v 0.757772 -0.216506 -0.437500
v 0.866025 -0.250000 -0.500000
v 0.974279 -0.216506 -0.562500
v 1.053525 -0.125000 -0.608253
v 0.991692 0.000000 -0.760952
v 0.965119 0.125000 -0.740562
v 0.892523 0.216506 -0.684856
v 0.793353 0.250000 -0.608761
v 0.694184 0.216506 -0.532666
v 0.621587 0.125000 -0.476961
v 0.595015 0.000000 -0.456571
v 0.621587 -0.125000 -0.476961
v 0.694184 -0.216506 -0.532666
v 0.793353 -0.250000 -0.608761
v 0.892523 -0.216506 -0.684856
v 0.965119 -0.125000 -0.740562
v 0.883883 0.000000 -0.883884
v 0.860200 0.125000 -0.860200
v 0.795495 0.216506 -0.795495
v 0.707107 0.250000 -0.707107
v 0.618718 0.216506 -0.618719
v 0.554014 0.125000 -0.554014
v 0.530330 0.000000 -0.530330
v 0.554014 -0.125000 -0.554014
v 0.618718 -0.216506 -0.618719
v 0.707107 -0.250000 -0.707107
v 0.795495 -0.216506 -0.795495
v 0.860200 -0.125000 -0.860200
v 0.760952 0.000000 -0.991691
v 0.740562 0.125000 -0.965119
v 0.684857 0.216506 -0.892522
v 0.608762 0.250000 -0.793353
v 0.532666 0.216506 -0.694184
v 0.476961 0.125000 -0.621587
v 0.456571 0.000000 -0.595015
v 0.476961 -0.125000 -0.621587
v 0.532666 -0.216506 -0.694184
v 0.608762 -0.250000 -0.793353
v 0.684857 -0.216506 -0.892522
v 0.740562 -0.125000 -0.965119
v 0.625000 0.000000 -1.082532
v 0.608253 0.125000 -1.053525
v 0.562500 0.216506 -0.974279
v 0.500000 0.250000 -0.866025
v 0.437500 0.216506 -0.757772
v 0.391747 0.125000 -0.678525
v 0.375000 0.000000 -0.649519
v 0.391747 -0.125000 -0.678525
v 0.437500 -0.216506 -0.757772
v 0.500000 -0.250000 -0.866025
v 0.562500 -0.216506 -0.974279
v 0.608253 -0.125000 -1.053525
v 0.478355 0.000000 -1.154849
v 0.465537 0.125000 -1.123905
v 0.430519 0.216506 -1.039364
v 0.382684 0.250000 -0.923879
v 0.334848 0.216506 -0.808394
v 0.299830 0.125000 -0.723854
v 0.287013 0.000000 -0.692910
v 0.299830 -0.125000 -0.723854
v 0.334848 -0.216506 -0.808394
v 0.382684 -0.250000 -0.923879
v 0.430519 -0.216506 -1.039364
v 0.465537 -0.125000 -1.123905
v 0.323524 0.000000 -1.207407
v 0.314855 0.125000 -1.175055
v 0.291171 0.216506 -1.086667
v 0.258819 0.250000 -0.965926
v 0.226467 0.216506 -0.845185
v 0.202783 0.125000 -0.756797
v 0.194114 0.000000 -0.724444
v 0.202783 -0.125000 -0.756797
v 0.226467 -0.216506 -0.845185
v 0.258819 -0.250000 -0.965926
v 0.291171 -0.216506 -1.086667
v 0.314855 -0.125000 -1.175055
v 0.163158 0.000000 -1.239306
v 0.158786 0.125000 -1.206099
v 0.146842 0.216506 -1.115376
v 0.130526 0.250000 -0.991445
v 0.114210 0.216506 -0.867514
v 0.102266 0.125000 -0.776791
v 0.097895 0.000000 -0.743584
v 0.102266 -0.125000 -0.776791
v 0.114210 -0.216506 -0.867514
v 0.130526 -0.250000 -0.991445
v 0.146842 -0.216506 -1.115376
v 0.158786 -0.125000 -1.206099
v 0.000000 0.000000 -1.250000
v 0.000000 0.125000 -1.216506
v 0.000000 0.216506 -1.125000
v 0.000000 0.250000 -1.000000
v 0.000000 0.216506 -0.875000
v 0.000000 0.125000 -0.783494
v 0.000000 0.000000 -0.750000
v 0.000000 -0.125000 -0.783494
v 0.000000 -0.216506 -0.875000
v 0.000000 -0.250000 -1.000000
v 0.000000 -0.216506 -1.125000
v 0.000000 -0.125000 -1.216506
v -0.163158 0.000000 -1.239306
v -0.158786 0.125000 -1.206099
v -0.146842 0.216506 -1.115375
v -0.130526 0.250000 -0.991445
v -0.114211 0.216506 -0.867514
v -0.102267 0.125000 -0.776791
v -0.097895 0.000000 -0.743584
v -0.102267 -0.125000 -0.776791
v -0.114211 -0.216506 -0.867514
v -0.130526 -0.250000 -0.991445
v -0.146842 -0.216506 -1.115375
v -0.158786 -0.125000 -1.206099
v -0.323524 0.000000 -1.207407
v -0.314855 0.125000 -1.175055
v -0.291171 0.216506 -1.086667
v -0.258819 0.250000 -0.965926
v -0.226467 0.216506 -0.845185
v -0.202783 0.125000 -0.756797
v -0.194114 0.000000 -0.724444
v -0.202783 -0.125000 -0.756797
v -0.226467 -0.216506 -0.845185
v -0.258819 -0.250000 -0.965926
v -0.291171 -0.216506 -1.086667
v -0.314855 -0.125000 -1.175055
v -0.478354 0.000000 -1.154849
v -0.465537 0.125000 -1.123905
v -0.430519 0.216506 -1.039364
v -0.382684 0.250000 -0.923880
v -0.334848 0.216506 -0.808395
v -0.299830 0.125000 -0.723854
v -0.287013 0.000000 -0.692910
v -0.299830 -0.125000 -0.723854
v -0.334848 -0.216506 -0.808395
v -0.382684 -0.250000 -0.923880
v -0.430519 -0.216506 -1.039364
v -0.465537 -0.125000 -1.123905
v -0.625000 0.000000 -1.082532
v -0.608253 0.125000 -1.053526
v -0.562500 0.216506 -0.974279
v -0.500000 0.250000 -0.866026
v -0.437500 0.216506 -0.757772
v -0.391747 0.125000 -0.678525
v -0.375000 0.000000 -0.649519
v -0.391747 -0.125000 -0.678525
v -0.437500 -0.216506 -0.757772
v -0.500000 -0.250000 -0.866026
v -0.562500 -0.216506 -0.974279
v -0.608253 -0.125000 -1.053526
v -0.760952 0.000000 -0.991692
v -0.740562 0.125000 -0.965119
v -0.684857 0.216506 -0.892522
v -0.608761 0.250000 -0.793353
v -0.532666 0.216506 -0.694184
v -0.476961 0.125000 -0.621587
v -0.456571 0.000000 -0.595015
v -0.476961 -0.125000 -0.621587
v -0.532666 -0.216506 -0.694184
v -0.608761 -0.250000 -0.793353
v -0.684857 -0.216506 -0.892522
v -0.740562 -0.125000 -0.965119
v -0.883884 0.000000 -0.883883
v -0.860200 0.125000 -0.860200
v -0.795495 0.216506 -0.795495
v -0.707107 0.250000 -0.707107
v -0.618719 0.216506 -0.618718
v -0.554014 0.125000 -0.554013
v -0.530330 0.000000 -0.530330
v -0.554014 -0.125000 -0.554013
v -0.618719 -0.216506 -0.618718
v -0.707107 -0.250000 -0.707107
v -0.795495 -0.216506 -0.795495
v -0.860200 -0.125000 -0.860200
v -0.991692 0.000000 -0.760952
v -0.965119 0.125000 -0.740562
v -0.892522 0.216506 -0.684857
v -0.793353 0.250000 -0.608761
v -0.694184 0.216506 -0.532666
v -0.621587 0.125000 -0.476961
v -0.595015 0.000000 -0.456571
v -0.621587 -0.125000 -0.476961
v -0.694184 -0.216506 -0.532666
v -0.793353 -0.250000 -0.608761
v -0.892522 -0.216506 -0.684857
v -0.965119 -0.125000 -0.740562
v -1.082532 0.000000 -0.625000
v -1.053525 0.125000 -0.608253
v -0.974278 0.216506 -0.562500
v -0.866025 0.250000 -0.500000
v -0.757772 0.216506 -0.437500
v -0.678525 0.125000 -0.391747
v -0.649519 0.000000 -0.375000
v -0.678525 -0.125000 -0.391747
v -0.757772 -0.216506 -0.437500
v -0.866025 -0.250000 -0.500000
v -0.974278 -0.216506 -0.562500
v -1.053525 -0.125000 -0.608253
v -1.154849 0.000000 -0.478354
v -1.123905 0.125000 -0.465537
v -1.039364 0.216506 -0.430519
v -0.923880 0.250000 -0.382683
v -0.808395 0.216506 -0.334848
v -0.723854 0.125000 -0.299830
v -0.692910 0.000000 -0.287013
v -0.723854 -0.125000 -0.299830
v -0.808395 -0.216506 -0.334848
v -0.923880 -0.250000 -0.382683
v -1.039364 -0.216506 -0.430519
v -1.123905 -0.125000 -0.465537
v -1.207407 0.000000 -0.323524
v -1.175055 0.125000 -0.314855
v -1.086667 0.216506 -0.291171
v -0.965926 0.250000 -0.258819
v -0.845185 0.216506 -0.226467
v -0.756797 0.125000 -0.202783
v -0.724444 0.000000 -0.194114
v -0.756797 -0.125000 -0.202783
v -0.845185 -0.216506 -0.226467
v -0.965926 -0.250000 -0.258819
v -1.086667 -0.216506 -0.291171
v -1.175055 -0.125000 -0.314855
v -1.239306 0.000000 -0.163158
v -1.206099 0.125000 -0.158786
v -1.115375 0.216506 -0.146842
v -0.991445 0.250000 -0.130526
v -0.867514 0.216506 -0.114211
v -0.776791 0.125000 -0.102267
v -0.743584 0.000000 -0.097895
v -0.776791 -0.125000 -0.102267
v -0.867514 -0.216506 -0.114211
v -0.991445 -0.250000 -0.130526
v -1.115375 -0.216506 -0.146842
v -1.206099 -0.125000 -0.158786
v -1.250000 0.000000 -0.000000
v -1.216506 0.125000 -0.000000
v -1.125000 0.216506 -0.000000
v -1.000000 0.250000 -0.000000
v -0.875000 0.216506 -0.000000
v -0.783494 0.125000 -0.000000
v -0.750000 0.000000 -0.000000
v -0.783494 -0.125000 -0.000000
v -0.875000 -0.216506 -0.000000
v -1.000000 -0.250000 -0.000000
v -1.125000 -0.216506 -0.000000
v -1.216506 -0.125000 -0.000000
v -1.239306 0.000000 0.163158
v -1.206099 0.125000 0.158786
v -1.115375 0.216506 0.146842
v -0.991445 0.250000 0.130526
v -0.867514 0.216506 0.114211
v -0.776791 0.125000 0.102267
v -0.743584 0.000000 0.097895
v -0.776791 -0.125000 0.102267
v -0.867514 -0.216506 0.114211
v -0.991445 -0.250000 0.130526
v -1.115375 -0.216506 0.146842
v -1.206099 -0.125000 0.158786
v -1.207407 0.000000 0.323524
v -1.175055 0.125000 0.314855
v -1.086667 0.216506 0.291171
v -0.965926 0.250000 0.258819
v -0.845185 0.216506 0.226467
v -0.756797 0.125000 0.202783
v -0.724444 0.000000 0.194114
v -0.756797 -0.125000 0.202783
v -0.845185 -0.216506 0.226467
v -0.965926 -0.250000 0.258819
v -1.086667 -0.216506 0.291171
v -1.175055 -0.125000 0.314855
v -1.154850 0.000000 0.478354
v -1.123906 0.125000 0.465536
v -1.039365 0.216506 0.430518
v -0.923880 0.250000 0.382683
v -0.808395 0.216506 0.334848
v -0.723854 0.125000 0.299830
v -0.692910 0.000000 0.287012
v -0.723854 -0.125000 0.299830
v -0.808395 -0.216506 0.334848
v -0.923880 -0.250000 0.382683
v -1.039365 -0.216506 0.430518
v -1.123906 -0.125000 0.465536
v -1.082532 0.000000 0.625000
v -1.053526 0.125000 0.608253
v -0.974279 0.216506 0.562500
v -0.866026 0.250000 0.500000
v -0.757772 0.216506 0.437500
v -0.678525 0.125000 0.391747
v -0.649519 0.000000 0.375000
v -0.678525 -0.125000 0.391747
v -0.757772 -0.216506 0.437500
v -0.866026 -0.250000 0.500000
v -0.974279 -0.216506 0.562500
v -1.053526 -0.125000 0.608253
v -0.991692 0.000000 0.760952
v -0.965119 0.125000 0.740562
v -0.892522 0.216506 0.684857
v -0.793353 0.250000 0.608761
v -0.694184 0.216506 0.532666
v -0.621587 0.125000 0.476961
v -0.595015 0.000000 0.456571
v -0.621587 -0.125000 0.476961
v -0.694184 -0.216506 0.532666
v -0.793353 -0.250000 0.608761
v -0.892522 -0.216506 0.684857
v -0.965119 -0.125000 0.740562
v -0.883884 0.000000 0.883883
v -0.860200 0.125000 0.860200
v -0.795495 0.216506 0.795495
v -0.707107 0.250000 0.707107
v -0.618719 0.216506 0.618718
v -0.554014 0.125000 0.554013
v -0.530330 0.000000 0.530330
v -0.554014 -0.125000 0.554013
v -0.618719 -0.216506 0.618718
v -0.707107 -0.250000 0.707107
v -0.795495 -0.216506 0.795495
v -0.860200 -0.125000 0.860200
v -0.760952 0.000000 0.991691
v -0.740563 0.125000 0.965119
v -0.684857 0.216506 0.892522
v -0.608762 0.250000 0.793353
v -0.532667 0.216506 0.694184
v -0.476961 0.125000 0.621587
v -0.456571 0.000000 0.595015
v -0.476961 -0.125000 0.621587
v -0.532667 -0.216506 0.694184
v -0.608762 -0.250000 0.793353
v -0.684857 -0.216506 0.892522
v -0.740563 -0.125000 0.965119
v -0.625000 0.000000 1.082532
v -0.608253 0.125000 1.053526
v -0.562500 0.216506 0.974279
v -0.500000 0.250000 0.866026
v -0.437500 0.216506 0.757772
v -0.391747 0.125000 0.678525
v -0.375000 0.000000 0.649519
v -0.391747 -0.125000 0.678525
v -0.437500 -0.216506 0.757772
v -0.500000 -0.250000 0.866026
v -0.562500 -0.216506 0.974279
v -0.608253 -0.125000 1.053526
v -0.478354 0.000000 1.154849
v -0.465537 0.125000 1.123905
v -0.430519 0.216506 1.039364
v -0.382684 0.250000 0.923880
v -0.334848 0.216506 0.808395
v -0.299830 0.125000 0.723854
v -0.287013 0.000000 0.692910
v -0.299830 -0.125000 0.723854
v -0.334848 -0.216506 0.808395
v -0.382684 -0.250000 0.923880
v -0.430519 -0.216506 1.039364
v -0.465537 -0.125000 1.123905
v -0.323524 0.000000 1.207407
v -0.314855 0.125000 1.175055
v -0.291172 0.216506 1.086666
v -0.258819 0.250000 0.965926
v -0.226467 0.216506 0.845185
v -0.202783 0.125000 0.756797
v -0.194115 0.000000 0.724444
v -0.202783 -0.125000 0.756797
v -0.226467 -0.216506 0.845185
v -0.258819 -0.250000 0.965926
v -0.291172 -0.216506 1.086666
v -0.314855 -0.125000 1.175055
v -0.163158 0.000000 1.239306
v -0.158787 0.125000 1.206099
v -0.146843 0.216506 1.115375
v -0.130527 0.250000 0.991445
v -0.114211 0.216506 0.867514
v -0.102267 0.125000 0.776791
v -0.097895 0.000000 0.743584
v -0.102267 -0.125000 0.776791
v -0.114211 -0.216506 0.867514
v -0.130527 -0.250000 0.991445
v -0.146843 -0.216506 1.115375
v -0.158787 -0.125000 1.206099
v 0.000000 0.000000 1.250000
v 0.000000 0.125000 1.216506
v 0.000000 0.216506 1.125000
v 0.000000 0.250000 1.000000
v 0.000000 0.216506 0.875000
v 0.000000 0.125000 0.783494
v 0.000000 0.000000 0.750000
v 0.000000 -0.125000 0.783494
v 0.000000 -0.216506 0.875000
v 0.000000 -0.250000 1.000000
v 0.000000 -0.216506 1.125000
v 0.000000 -0.125000 1.216506
v 0.163158 0.000000 1.239306
v 0.158786 0.125000 1.206099
v 0.146842 0.216506 1.115376
v 0.130526 0.250000 0.991445
v 0.114210 0.216506 0.867514
v 0.102266 0.125000 0.776791
v 0.097895 0.000000 0.743584
v 0.102266 -0.125000 0.776791
v 0.114210 -0.216506 0.867514
v 0.130526 -0.250000 0.991445
v 0.146842 -0.216506 1.115376
v 0.158786 -0.125000 1.206099
v 0.323523 0.000000 1.207407
v 0.314854 0.125000 1.175055
v 0.291171 0.216506 1.086667
v 0.258819 0.250000 0.965926
v 0.226466 0.216506 0.845185
v 0.202783 0.125000 0.756797
v 0.194114 0.000000 0.724444
v 0.202783 -0.125000 0.756797
v 0.226466 -0.216506 0.845185
v 0.258819 -0.250000 0.965926
v 0.291171 -0.216506 1.086667
v 0.314854 -0.125000 1.175055
v 0.478355 0.000000 1.154849
v 0.465537 0.125000 1.123905
v 0.430519 0.216506 1.039364
v 0.382684 0.250000 0.923879
v 0.334848 0.216506 0.808394
v 0.299830 0.125000 0.723854
v 0.287013 0.000000 0.692910
v 0.299830 -0.125000 0.723854
v 0.334848 -0.216506 0.808394
v 0.382684 -0.250000 0.923879
v 0.430519 -0.216506 1.039364
v 0.465537 -0.125000 1.123905
v 0.625000 0.000000 1.082532
v 0.608253 0.125000 1.053525
v 0.562500 0.216506 0.974279
v 0.500000 0.250000 0.866025
v 0.437500 0.216506 0.757772
v 0.391747 0.125000 0.678525
v 0.375000 0.000000 0.649519
v 0.391747 -0.125000 0.678525
v 0.437500 -0.216506 0.757772
v 0.500000 -0.250000 0.866025
v 0.562500 -0.216506 0.974279
v 0.608253 -0.125000 1.053525
v 0.760952 0.000000 0.991692
v 0.740562 0.125000 0.965120
v 0.684856 0.216506 0.892523
v 0.608761 0.250000 0.793353
v 0.532666 0.216506 0.694184
v 0.476961 0.125000 0.621587
v 0.456571 0.000000 0.595015
v 0.476961 -0.125000 0.621587
v 0.532666 -0.216506 0.694184
v 0.608761 -0.250000 0.793353
v 0.684856 -0.216506 0.892523
v 0.740562 -0.125000 0.965120
v 0.883883 0.000000 0.883884
v 0.860199 0.125000 0.860200
v 0.795495 0.216506 0.795496
v 0.707106 0.250000 0.707107
v 0.618718 0.216506 0.618719
v 0.554013 0.125000 0.554014
v 0.530330 0.000000 0.530330
v 0.554013 -0.125000 0.554014
v 0.618718 -0.216506 0.618719
v 0.707106 -0.250000 0.707107
v 0.795495 -0.216506 0.795496
v 0.860199 -0.125000 0.860200
v 0.991692 0.000000 0.760952
v 0.965119 0.125000 0.740562
v 0.892523 0.216506 0.684856
v 0.793353 0.250000 0.608761
v 0.694184 0.216506 0.532666
v 0.621587 0.125000 0.476961
v 0.595015 0.000000 0.456571
v 0.621587 -0.125000 0.476961
v 0.694184 -0.216506 0.532666
v 0.793353 -0.250000 0.608761
v 0.892523 -0.216506 0.684856
v 0.965119 -0.125000 0.740562
v 1.082532 0.000000 0.625000
v 1.053525 0.125000 0.608253
v 0.974279 0.216506 0.562500
v 0.866025 0.250000 0.500000
v 0.757772 0.216506 0.437500
v 0.678525 0.125000 0.391747
v 0.649519 0.000000 0.375000
v 0.678525 -0.125000 0.391747
v 0.757772 -0.216506 0.437500
v 0.866025 -0.250000 0.500000
v 0.974279 -0.216506 0.562500
v 1.053525 -0.125000 0.608253
v 1.154849 0.000000 0.478355
v 1.123905 0.125000 0.465537
v 1.039364 0.216506 0.430519
v 0.923879 0.250000 0.382684
v 0.808394 0.216506 0.334848
v 0.723854 0.125000 0.299830
v 0.692910 0.000000 0.287013
v 0.723854 -0.125000 0.299830
v 0.808394 -0.216506 0.334848
v 0.923879 -0.250000 0.382684
v 1.039364 -0.216506 0.430519
v 1.123905 -0.125000 0.465537
v 1.207407 0.000000 0.323523
v 1.175055 0.125000 0.314855
v 1.086667 0.216506 0.291171
v 0.965926 0.250000 0.258819
v 0.845185 0.216506 0.226466
v 0.756797 0.125000 0.202783
v 0.724444 0.000000 0.194114
v 0.756797 -0.125000 0.202783
v 0.845185 -0.216506 0.226466
v 0.965926 -0.250000 0.258819
v 1.086667 -0.216506 0.291171
v 1.175055 -0.125000 0.314855
v 1.239306 0.000000 0.163158
v 1.206099 0.125000 0.158786
v 1.115376 0.216506 0.146842
v 0.991445 0.250000 0.130526
v 0.867514 0.216506 0.114210
v 0.776791 0.125000 0.102266
v 0.743584 0.000000 0.097895
v 0.776791 -0.125000 0.102266
v 0.867514 -0.216506 0.114210
v 0.991445 -0.250000 0.130526
v 1.115376 -0.216506 0.146842
v 1.206099 -0.125000 0.158786
vt 1.000000 1.000000
vt 0.968750 0.500000
vt 1.000000 0.500000
vt 0.968750 1.000000
vt 0.937500 0.500000
vt 0.937500 1.000000
vt 0.906250 0.500000
vt 0.906250 1.000000
vt 0.875000 0.500000
vt 0.875000 1.000000
vt 0.843750 0.500000
vt 0.843750 1.000000
vt 0.812500 0.500000
vt 0.812500 1.000000
vt 0.781250 0.500000
vt 0.781250 1.000000
vt 0.750000 0.500000
vt 0.750000 1.000000
vt 0.718750 0.500000
vt 0.718750 1.000000
vt 0.687500 0.500000
vt 0.687500 1.000000
vt 0.656250 0.500000
vt 0.656250 1.000000
vt 0.625000 0.500000
vt 0.625000 1.000000
vt 0.593750 0.500000
vt 0.593750 1.000000
vt 0.562500 0.500000
vt 0.562500 1.000000
vt 0.531250 0.500000
vt 0.531250 1.000000
vt 0.500000 0.500000
vt 0.500000 1.000000
vt 0.468750 0.500000
vt 0.468750 1.000000
vt 0.437500 0.500000
vt 0.437500 1.000000
vt 0.406250 0.500000
vt 0.406250 1.000000
vt 0.375000 0.500000
vt 0.375000 1.000000
vt 0.343750 0.500000
vt 0.343750 1.000000
vt 0.312500 0.500000
vt 0.312500 1.000000
vt 0.281250 0.500000
vt 0.281250 1.000000
vt 0.250000 0.500000
vt 0.250000 1.000000
vt 0.218750 0.500000
vt 0.218750 1.000000
vt 0.187500 0.500000
vt 0.187500 1.000000
vt 0.156250 0.500000
vt 0.156250 1.000000
vt 0.125000 0.500000
vt 0.125000 1.000000
vt 0.093750 0.500000
vt 0.093750 1.000000
vt 0.062500 0.500000
vt 0.028269 0.341844
vt 0.158156 0.028269
vt 0.471731 0.158156
vt 0.062500 1.000000
vt 0.031250 0.500000
vt 0.031250 1.000000
vt 0.000000 0.500000
vt 0.985388 0.296822
vt 0.796822 0.014612
vt 0.514612 0.203178
vt 0.520833 0.500000
vt 0.500000 0.583333
vt 0.500000 0.500000
vt 0.520833 0.666667
vt 0.500000 0.666667
vt 0.500000 0.750000
vt 0.520833 0.750000
vt 0.500000 0.833333
vt 0.520833 0.833333
vt 0.500000 0.916667
vt 0.520833 1.000000
vt 0.500000 1.000000
vt 0.520833 0.000000
vt 0.500000 0.083333
vt 0.500000 0.000000
vt 0.520833 0.083333
vt 0.500000 0.166667
vt 0.520833 0.166667
vt 0.500000 0.250000
vt 0.520833 0.250000
vt 0.500000 0.333333
vt 0.520833 0.333333
vt 0.500000 0.416667
vt 0.520833 0.416667
vt 0.541667 0.500000
vt 0.520833 0.583333
vt 0.541667 0.583333
vt 0.541667 0.666667
vt 0.541667 0.750000
vt 0.541667 0.916667
vt 0.520833 0.916667
vt 0.541667 0.000000
vt 0.541667 0.083333
vt 0.541667 0.250000
vt 0.541667 0.333333
vt 0.541667 0.416667
vt 0.562500 0.583333
vt 0.562500 0.666667
vt 0.562500 0.833333
vt 0.541667 0.833333
vt 0.562500 0.916667
vt 0.562500 1.000000
vt 0.541667 1.000000
vt 0.562500 0.000000
vt 0.562500 0.083333
vt 0.541667 0.166667
vt 0.562500 0.250000
vt 0.562500 0.333333
vt 0.562500 0.416667
vt 0.562500 0.500000
vt 0.583333 0.583333
vt 0.583333 0.666667
vt 0.583333 0.750000
vt 0.562500 0.750000
vt 0.583333 0.916667
vt 0.583333 0.000000
vt 0.583333 0.083333
vt 0.562500 0.166667
vt 0.583333 0.250000
vt 0.583333 0.333333
vt 0.583333 0.416667
vt 0.604167 0.500000
vt 0.583333 0.500000
vt 0.604167 0.666667
vt 0.604167 0.750000
vt 0.583333 0.833333
vt 0.604167 0.916667
vt 0.583333 1.000000
vt 0.604167 0.000000
vt 0.604167 0.083333
vt 0.583333 0.166667
vt 0.604167 0.166667
vt 0.604167 0.250000
vt 0.604167 0.333333
vt 0.625000 0.500000
vt 0.604167 0.583333
vt 0.625000 0.583333
vt 0.625000 0.666667
vt 0.625000 0.750000
vt 0.604167 0.833333
vt 0.625000 0.833333
vt 0.625000 0.916667
vt 0.604167 1.000000
vt 0.625000 0.083333
vt 0.625000 0.166667
vt 0.625000 0.250000
vt 0.625000 0.416667
vt 0.604167 0.416667
vt 0.645833 0.500000
vt 0.645833 0.666667
vt 0.645833 0.750000
vt 0.645833 0.916667
vt 0.625000 1.000000
vt 0.645833 0.000000
vt 0.625000 0.000000
vt 0.645833 0.083333
vt 0.645833 0.250000
vt 0.645833 0.333333
vt 0.625000 0.333333
vt 0.645833 0.416667
vt 0.666667 0.500000
vt 0.645833 0.583333
vt 0.666667 0.666667
vt 0.666667 0.750000
vt 0.645833 0.833333
vt 0.666667 0.916667
vt 0.645833 1.000000
vt 0.666667 0.000000
vt 0.666667 0.083333
vt 0.645833 0.166667
vt 0.666667 0.166667
vt 0.666667 0.250000
vt 0.666667 0.333333
vt 0.666667 0.416667
vt 0.687500 0.583333
vt 0.666667 0.583333
vt 0.687500 0.666667
vt 0.687500 0.750000
vt 0.666667 0.833333
vt 0.687500 0.833333
vt 0.687500 0.916667
vt 0.666667 1.000000
vt 0.687500 0.000000
vt 0.687500 0.083333
vt 0.687500 0.250000
vt 0.687500 0.333333
vt 0.687500 0.416667
vt 0.708333 0.500000
vt 0.687500 0.500000
vt 0.708333 0.583333
vt 0.708333 0.666667
vt 0.708333 0.750000
vt 0.708333 0.916667
vt 0.687500 1.000000
vt 0.708333 0.000000
vt 0.708333 0.083333
vt 0.687500 0.166667
vt 0.708333 0.166667
vt 0.708333 0.250000
vt 0.708333 0.333333
vt 0.708333 0.416667
vt 0.729167 0.500000
vt 0.729167 0.583333
vt 0.729167 0.750000
vt 0.708333 0.833333
vt 0.729167 0.833333
vt 0.729167 0.916667
vt 0.708333 1.000000
vt 0.729167 0.083333
vt 0.729167 0.250000
vt 0.729167 0.333333
vt 0.729167 0.416667
vt 0.750000 0.500000
vt 0.750000 0.583333
vt 0.729167 0.666667
vt 0.750000 0.666667
vt 0.750000 0.833333
vt 0.750000 0.916667
vt 0.729167 1.000000
vt 0.750000 0.000000
vt 0.729167 0.000000
vt 0.750000 0.083333
vt 0.729167 0.166667
vt 0.750000 0.166667
vt 0.750000 0.250000
vt 0.750000 0.333333
vt 0.770833 0.500000
vt 0.770833 0.583333
vt 0.770833 0.666667
vt 0.750000 0.750000
vt 0.770833 0.750000
vt 0.770833 0.833333
vt 0.770833 0.916667
vt 0.750000 1.000000
vt 0.770833 0.083333
vt 0.770833 0.250000
vt 0.770833 0.333333
vt 0.770833 0.416667
vt 0.750000 0.416667
vt 0.791667 0.500000
vt 0.791667 0.666667
vt 0.791667 0.750000
vt 0.791667 0.833333
vt 0.791667 0.916667
vt 0.770833 1.000000
vt 0.791667 0.000000
vt 0.770833 0.000000
vt 0.791667 0.083333
vt 0.770833 0.166667
vt 0.791667 0.166667
vt 0.791667 0.250000
vt 0.791667 0.333333
vt 0.791667 0.416667
vt 0.812500 0.500000
vt 0.791667 0.583333
vt 0.812500 0.583333
vt 0.812500 0.666667
vt 0.812500 0.833333
vt 0.812500 0.916667
vt 0.791667 1.000000
vt 0.812500 0.000000
vt 0.812500 0.083333
vt 0.812500 0.250000
vt 0.812500 0.416667
vt 0.833333 0.500000
vt 0.833333 0.666667
vt 0.812500 0.750000
vt 0.833333 0.750000
vt 0.833333 0.833333
vt 0.833333 0.916667
vt 0.812500 1.000000
vt 0.833333 0.000000
vt 0.833333 0.083333
vt 0.812500 0.166667
vt 0.833333 0.166667
vt 0.833333 0.250000
vt 0.812500 0.333333
vt 0.833333 0.333333
vt 0.833333 0.416667
vt 0.854167 0.500000
vt 0.833333 0.583333
vt 0.854167 0.583333
vt 0.854167 0.666667
vt 0.854167 0.750000
vt 0.854167 0.833333
vt 0.854167 1.000000
vt 0.833333 1.000000
vt 0.854167 0.000000
vt 0.854167 0.166667
vt 0.854167 0.250000
vt 0.854167 0.333333
vt 0.854167 0.416667
vt 0.875000 0.500000
vt 0.875000 0.583333
vt 0.875000 0.750000
vt 0.875000 0.833333
vt 0.854167 0.916667
vt 0.875000 0.916667
vt 0.875000 0.000000
vt 0.854167 0.083333
vt 0.875000 0.166667
vt 0.875000 0.250000
vt 0.875000 0.333333
vt 0.875000 0.416667
vt 0.895833 0.500000
vt 0.895833 0.583333
vt 0.875000 0.666667
vt 0.895833 0.666667
vt 0.895833 0.833333
vt 0.895833 0.916667
vt 0.875000 1.000000
vt 0.895833 0.000000
vt 0.875000 0.083333
vt 0.895833 0.166667
vt 0.895833 0.250000
vt 0.895833 0.416667
vt 0.916667 0.583333
vt 0.916667 0.750000
vt 0.895833 0.750000
vt 0.916667 0.833333
vt 0.916667 0.916667
vt 0.895833 1.000000
vt 0.916667 0.000000
vt 0.895833 0.083333
vt 0.916667 0.083333
vt 0.916667 0.250000
vt 0.895833 0.333333
vt 0.916667 0.333333
vt 0.916667 0.416667
vt 0.937500 0.500000
vt 0.916667 0.500000
vt 0.937500 0.583333
vt 0.916667 0.666667
vt 0.937500 0.666667
vt 0.937500 0.833333
vt 0.937500 0.916667
vt 0.916667 1.000000
vt 0.937500 0.083333
vt 0.916667 0.166667
vt 0.937500 0.166667
vt 0.937500 0.250000
vt 0.937500 0.416667
vt 0.958333 0.583333
vt 0.958333 0.666667
vt 0.937500 0.750000
vt 0.958333 0.833333
vt 0.958333 0.916667
vt 0.937500 1.000000
vt 0.958333 0.000000
vt 0.937500 0.000000
vt 0.958333 0.083333
vt 0.958333 0.166667
vt 0.958333 0.333333
vt 0.937500 0.333333
vt 0.958333 0.416667
vt 0.979167 0.500000
vt 0.958333 0.500000
vt 0.979167 0.583333
vt 0.979167 0.666667
vt 0.958333 0.750000
vt 0.979167 0.750000
vt 0.979167 0.833333
vt 0.979167 0.916667
vt 0.958333 1.000000
vt 0.979167 0.000000
vt 0.979167 0.166667
vt 0.979167 0.250000
vt 0.958333 0.250000
vt 0.979167 0.333333
vt 0.979167 0.416667
vt 1.000000 0.583333
vt 1.000000 0.666667
vt 1.000000 0.750000
vt 1.000000 0.833333
vt 1.000000 0.916667
vt 0.979167 1.000000
vt 1.000000 0.000000
vt 0.979167 0.083333
vt 1.000000 0.166667
vt 1.000000 0.250000
vt 1.000000 0.333333
vt 1.000000 0.416667
vt 0.020833 0.500000
vt 0.000000 0.583333
vt 0.000000 0.500000
vt 0.020833 0.583333
vt 0.000000 0.666667
vt 0.020833 0.666667
vt 0.000000 0.750000
vt 0.020833 0.750000
vt 0.000000 0.833333
vt 0.020833 0.833333
vt 0.000000 0.916667
vt 0.020833 0.916667
vt 0.000000 1.000000
vt 0.000000 0.000000
vt 0.020833 0.083333
vt 0.000000 0.083333
vt 0.000000 0.166667
vt 0.020833 0.250000
vt 0.000000 0.250000
vt 0.020833 0.333333
vt 0.000000 0.333333
vt 0.020833 0.416667
vt 0.000000 0.416667
vt 0.041667 0.583333
vt 0.041667 0.666667
vt 0.041667 0.750000
vt 0.041667 0.833333
vt 0.041667 0.916667
vt 0.020833 1.000000
vt 0.041667 0.000000
vt 0.020833 0.000000
vt 0.041667 0.083333
vt 0.020833 0.166667
vt 0.041667 0.166667
vt 0.041667 0.250000
vt 0.041667 0.333333
vt 0.041667 0.500000
vt 0.062500 0.500000
vt 0.062500 0.583333
vt 0.062500 0.750000
vt 0.062500 0.833333
vt 0.062500 0.916667
vt 0.041667 1.000000
vt 0.062500 0.000000
vt 0.062500 0.166667
vt 0.062500 0.250000
vt 0.062500 0.416667
vt 0.041667 0.416667
vt 0.083333 0.500000
vt 0.083333 0.583333
vt 0.062500 0.666667
vt 0.083333 0.666667
vt 0.083333 0.750000
vt 0.083333 0.833333
vt 0.083333 1.000000
vt 0.062500 1.000000
vt 0.083333 0.000000
vt 0.062500 0.083333
vt 0.083333 0.083333
vt 0.083333 0.166667
vt 0.083333 0.333333
vt 0.062500 0.333333
vt 0.083333 0.416667
vt 0.104167 0.500000
vt 0.104167 0.583333
vt 0.104167 0.666667
vt 0.104167 0.833333
vt 0.083333 0.916667
vt 0.104167 0.916667
vt 0.104167 0.000000
vt 0.104167 0.166667
vt 0.083333 0.250000
vt 0.104167 0.250000
vt 0.104167 0.416667
vt 0.125000 0.500000
vt 0.125000 0.666667
vt 0.104167 0.750000
vt 0.125000 0.750000
vt 0.125000 0.833333
vt 0.125000 0.916667
vt 0.104167 1.000000
vt 0.125000 0.000000
vt 0.104167 0.083333
vt 0.125000 0.083333
vt 0.125000 0.250000
vt 0.104167 0.333333
vt 0.125000 0.333333
vt 0.125000 0.416667
vt 0.145833 0.583333
vt 0.125000 0.583333
vt 0.145833 0.666667
vt 0.145833 0.833333
vt 0.145833 0.916667
vt 0.125000 1.000000
vt 0.145833 0.000000
vt 0.145833 0.083333
vt 0.125000 0.166667
vt 0.145833 0.166667
vt 0.145833 0.250000
vt 0.145833 0.333333
vt 0.145833 0.416667
vt 0.145833 0.500000
vt 0.166667 0.583333
vt 0.166667 0.666667
vt 0.145833 0.750000
vt 0.166667 0.750000
vt 0.166667 0.916667
vt 0.145833 1.000000
vt 0.166667 0.000000
vt 0.166667 0.083333
vt 0.166667 0.166667
vt 0.166667 0.333333
vt 0.166667 0.416667
vt 0.187500 0.500000
vt 0.166667 0.500000
vt 0.187500 0.583333
vt 0.187500 0.666667
vt 0.187500 0.750000
vt 0.166667 0.833333
vt 0.187500 0.833333
vt 0.187500 0.916667
vt 0.166667 1.000000
vt 0.187500 0.000000
vt 0.187500 0.083333
vt 0.187500 0.250000
vt 0.166667 0.250000
vt 0.187500 0.416667
vt 0.208333 0.500000
vt 0.208333 0.583333
vt 0.208333 0.666667
vt 0.208333 0.750000
vt 0.208333 0.916667
vt 0.187500 1.000000
vt 0.208333 0.000000
vt 0.208333 0.083333
vt 0.187500 0.166667
vt 0.208333 0.166667
vt 0.208333 0.250000
vt 0.187500 0.333333
vt 0.208333 0.416667
vt 0.229167 0.500000
vt 0.229167 0.666667
vt 0.229167 0.750000
vt 0.208333 0.833333
vt 0.229167 0.916667
vt 0.208333 1.000000
vt 0.229167 0.000000
vt 0.229167 0.083333
vt 0.229167 0.250000
vt 0.208333 0.333333
vt 0.229167 0.333333
vt 0.229167 0.416667
vt 0.250000 0.500000
vt 0.229167 0.583333
vt 0.250000 0.583333
vt 0.250000 0.750000
vt 0.250000 0.833333
vt 0.229167 0.833333
vt 0.250000 1.000000
vt 0.229167 1.000000
vt 0.250000 0.000000
vt 0.250000 0.083333
vt 0.229167 0.166667
vt 0.250000 0.166667
vt 0.250000 0.250000
vt 0.250000 0.333333
vt 0.250000 0.416667
vt 0.270833 0.583333
vt 0.250000 0.666667
vt 0.270833 0.666667
vt 0.270833 0.750000
vt 0.270833 0.833333
vt 0.250000 0.916667
vt 0.270833 0.916667
vt 0.270833 0.000000
vt 0.270833 0.166667
vt 0.270833 0.250000
vt 0.270833 0.333333
vt 0.270833 0.416667
vt 0.291667 0.500000
vt 0.270833 0.500000
vt 0.291667 0.583333
vt 0.291667 0.666667
vt 0.291667 0.750000
vt 0.291667 0.833333
vt 0.291667 1.000000
vt 0.270833 1.000000
vt 0.291667 0.000000
vt 0.270833 0.083333
vt 0.291667 0.083333
vt 0.291667 0.250000
vt 0.291667 0.333333
vt 0.291667 0.416667
vt 0.312500 0.500000
vt 0.312500 0.583333
vt 0.312500 0.666667
vt 0.312500 0.750000
vt 0.312500 0.833333
vt 0.291667 0.916667
vt 0.312500 0.916667
vt 0.312500 0.000000
vt 0.312500 0.083333
vt 0.291667 0.166667
vt 0.312500 0.166667
vt 0.312500 0.333333
vt 0.312500 0.416667
vt 0.333333 0.500000
vt 0.333333 0.583333
vt 0.333333 0.750000
vt 0.333333 0.833333
vt 0.333333 0.916667
vt 0.312500 1.000000
vt 0.333333 0.000000
vt 0.333333 0.083333
vt 0.333333 0.166667
vt 0.312500 0.250000
vt 0.333333 0.250000
vt 0.333333 0.333333
vt 0.354167 0.583333
vt 0.333333 0.666667
vt 0.354167 0.666667
vt 0.354167 0.750000
vt 0.354167 0.833333
vt 0.354167 0.916667
vt 0.333333 1.000000
vt 0.354167 0.000000
vt 0.354167 0.083333
vt 0.354167 0.166667
vt 0.354167 0.250000
vt 0.354167 0.416667
vt 0.333333 0.416667
vt 0.354167 0.500000
vt 0.375000 0.583333
vt 0.375000 0.750000
vt 0.375000 0.833333
vt 0.375000 0.916667
vt 0.354167 1.000000
vt 0.375000 0.000000
vt 0.375000 0.083333
vt 0.375000 0.166667
vt 0.375000 0.250000
vt 0.354167 0.333333
vt 0.375000 0.416667
vt 0.375000 0.500000
vt 0.395833 0.583333
vt 0.375000 0.666667
vt 0.395833 0.750000
vt 0.395833 0.833333
vt 0.395833 0.916667
vt 0.375000 1.000000
vt 0.395833 0.000000
vt 0.395833 0.166667
vt 0.395833 0.250000
vt 0.375000 0.333333
vt 0.395833 0.333333
vt 0.395833 0.416667
vt 0.416667 0.500000
vt 0.395833 0.500000
vt 0.416667 0.583333
vt 0.395833 0.666667
vt 0.416667 0.666667
vt 0.416667 0.750000
vt 0.416667 0.833333
vt 0.416667 0.916667
vt 0.395833 1.000000
vt 0.416667 0.000000
vt 0.395833 0.083333
vt 0.416667 0.166667
vt 0.416667 0.250000
vt 0.416667 0.416667
vt 0.437500 0.500000
vt 0.437500 0.583333
vt 0.437500 0.750000
vt 0.437500 0.833333
vt 0.437500 0.916667
vt 0.416667 1.000000
vt 0.437500 0.000000
vt 0.416667 0.083333
vt 0.437500 0.083333
vt 0.437500 0.166667
vt 0.437500 0.250000
vt 0.416667 0.333333
vt 0.437500 0.333333
vt 0.437500 0.416667
vt 0.458333 0.500000
vt 0.458333 0.583333
vt 0.437500 0.666667
vt 0.458333 0.666667
vt 0.458333 0.750000
vt 0.458333 0.833333
vt 0.458333 0.916667
vt 0.437500 1.000000
vt 0.458333 0.000000
vt 0.458333 0.166667
vt 0.458333 0.250000
vt 0.458333 0.333333
vt 0.458333 0.416667
vt 0.479167 0.583333
vt 0.479167 0.666667
vt 0.479167 0.750000
vt 0.479167 0.833333
vt 0.479167 1.000000
vt 0.458333 1.000000
vt 0.479167 0.000000
vt 0.458333 0.083333
vt 0.479167 0.083333
vt 0.479167 0.250000
vt 0.479167 0.333333
vt 0.479167 0.416667
vt 0.479167 0.500000
vt 0.479167 0.916667
vt 0.479167 0.166667
vt 1.000000 0.500000
vt 1.000000 1.000000
vt 1.000000 0.083333
vt 0.341844 0.471731
vt 0.296822 0.485388
vt 0.158156 0.471731
vt 0.250000 0.490000
vt 0.203178 0.485388
vt 0.116663 0.449553
vt 0.080294 0.419706
vt 0.050447 0.383337
vt 0.014612 0.296822
vt 0.010000 0.250000
vt 0.014612 0.203178
vt 0.028269 0.158156
vt 0.050447 0.116663
vt 0.080294 0.080294
vt 0.116663 0.050447
vt 0.203178 0.014612
vt 0.250000 0.010000
vt 0.296822 0.014612
vt 0.341844 0.028269
vt 0.383337 0.050447
vt 0.419706 0.080294
vt 0.449553 0.116663
vt 0.485388 0.203178
vt 0.490000 0.250000
vt 0.485388 0.296822
vt 0.471731 0.341844
vt 0.449553 0.383337
vt 0.419706 0.419706
vt 0.383337 0.449553
vt 0.000000 1.000000
vt 0.703178 0.485388
vt 0.750000 0.490000
vt 0.796822 0.485388
vt 0.841844 0.471731
vt 0.883337 0.449553
vt 0.919706 0.419706
vt 0.949553 0.383337
vt 0.971731 0.341844
vt 0.990000 0.250000
vt 0.985388 0.203178
vt 0.971731 0.158156
vt 0.949553 0.116663
vt 0.919706 0.080294
vt 0.883337 0.050447
vt 0.841844 0.028269
vt 0.750000 0.010000
vt 0.703178 0.014612
vt 0.658156 0.028269
vt 0.616663 0.050447
vt 0.580294 0.080294
vt 0.550447 0.116663
vt 0.528269 0.158156
vt 0.510000 0.250000
vt 0.514612 0.296822
vt 0.528269 0.341844
vt 0.550447 0.383337
vt 0.580294 0.419706
vt 0.616663 0.449553
vt 0.658156 0.471731
vn 0.0980 0.0000 -0.9952
vn 0.2903 0.0000 -0.9569
vn 0.4714 0.0000 -0.8819
vn 0.6344 0.0000 -0.7730
vn 0.7730 0.0000 -0.6344
vn 0.8819 0.0000 -0.4714
vn 0.9569 0.0000 -0.2903
vn 0.9952 0.0000 -0.0980
vn 0.9952 0.0000 0.0980
vn 0.9569 0.0000 0.2903
vn 0.8819 0.0000 0.4714
vn 0.7730 0.0000 0.6344
vn 0.6344 0.0000 0.7730
vn 0.4714 0.0000 0.8819
vn 0.2903 0.0000 0.9569
vn 0.0980 0.0000 0.9952
vn -0.0980 0.0000 0.9952
vn -0.2903 0.0000 0.9569
vn -0.4714 0.0000 0.8819
vn -0.6344 0.0000 0.7730
vn -0.7730 0.0000 0.6344
vn -0.8819 0.0000 0.4714
vn -0.9569 0.0000 0.2903
vn -0.9952 0.0000 0.0980
vn -0.9952 0.0000 -0.0980
vn -0.9569 0.0000 -0.2903
vn -0.8819 0.0000 -0.4714
vn -0.7730 0.0000 -0.6344
vn -0.6344 0.0000 -0.7730
vn -0.4714 0.0000 -0.8819
vn 0.0000 1.0000 0.0000
vn -0.2903 0.0000 -0.9569
vn -0.0980 0.0000 -0.9952
vn 0.0000 -1.0000 -0.0000
vn 0.9640 0.2583 -0.0632
vn 0.7063 0.7063 -0.0463
vn 0.2588 0.9658 -0.0170
vn -0.2588 0.9658 0.0170
vn -0.7063 0.7063 0.0463
vn -0.9640 0.2583 0.0632
vn -0.9640 -0.2583 0.0632
vn -0.7063 -0.7063 0.0463
vn -0.2588 -0.9658 0.0170
vn 0.2588 -0.9658 -0.0170
vn 0.7063 -0.7063 -0.0463
vn 0.9640 -0.2583 -0.0632
vn 0.9475 0.2583 -0.1885
vn 0.6943 0.7063 -0.1381
vn 0.2544 0.9658 -0.0506
vn -0.2544 0.9658 0.0506
vn -0.6943 0.7063 0.1381
vn -0.9475 0.2583 0.1885
vn -0.9475 -0.2583 0.1885
vn -0.6943 -0.7063 0.1381
vn -0.2544 -0.9658 0.0506
vn 0.2544 -0.9658 -0.0506
vn 0.6943 -0.7063 -0.1381
vn 0.9475 -0.2583 -0.1885
vn 0.9148 0.2583 -0.3105
vn 0.6703 0.7063 -0.2275
vn 0.2456 0.9658 -0.0834
vn -0.2456 0.9658 0.0834
vn -0.6703 0.7063 0.2275
vn -0.9148 0.2583 0.3105
vn -0.9148 -0.2583 0.3105
vn -0.6703 -0.7063 0.2275
vn -0.2456 -0.9658 0.0834
vn 0.2456 -0.9658 -0.0834
vn 0.6703 -0.7063 -0.2275
vn 0.9148 -0.2583 -0.3105
vn 0.8664 0.2583 -0.4273
vn 0.6349 0.7063 -0.3131
vn 0.2326 0.9658 -0.1147
vn -0.2326 0.9658 0.1147
vn -0.6349 0.7063 0.3131
vn -0.8664 0.2583 0.4273
vn -0.8664 -0.2583 0.4273
vn -0.6349 -0.7063 0.3131
vn -0.2326 -0.9658 0.1147
vn 0.2326 -0.9658 -0.1147
vn 0.6349 -0.7063 -0.3131
vn 0.8664 -0.2583 -0.4273
vn 0.8033 0.2583 -0.5367
vn 0.5886 0.7063 -0.3933
vn 0.2156 0.9658 -0.1441
vn -0.2156 0.9658 0.1441
vn -0.5886 0.7063 0.3933
vn -0.8033 0.2583 0.5367
vn -0.8033 -0.2583 0.5367
vn -0.5886 -0.7063 0.3933
vn -0.2156 -0.9658 0.1441
vn 0.2156 -0.9658 -0.1441
vn 0.5886 -0.7063 -0.3933
vn 0.8033 -0.2583 -0.5367
vn 0.7263 0.2583 -0.6370
vn 0.5322 0.7063 -0.4667
vn 0.1950 0.9658 -0.1710
vn -0.1950 0.9658 0.1710
vn -0.5322 0.7063 0.4667
vn -0.7263 0.2583 0.6370
vn -0.7263 -0.2583 0.6370
vn -0.5322 -0.7063 0.4667
vn -0.1950 -0.9658 0.1710
vn 0.1950 -0.9658 -0.1710
vn 0.5322 -0.7063 -0.4667
vn 0.7263 -0.2583 -0.6370
vn 0.6370 0.2583 -0.7263
vn 0.4667 0.7063 -0.5322
vn 0.1710 0.9658 -0.1950
vn -0.1710 0.9658 0.1950
vn -0.4667 0.7063 0.5322
vn -0.6370 0.2583 0.7263
vn -0.6370 -0.2583 0.7263
vn -0.4667 -0.7063 0.5322
vn -0.1710 -0.9658 0.1950
vn 0.1710 -0.9658 -0.1950
vn 0.4667 -0.7063 -0.5322
vn 0.6370 -0.2583 -0.7263
vn 0.5367 0.2583 -0.8033
vn 0.3933 0.7063 -0.5886
vn 0.1441 0.9658 -0.2156
vn -0.1441 0.9658 0.2156
vn -0.3933 0.7063 0.5886
vn -0.5367 0.2583 0.8033
vn -0.5367 -0.2583 0.8033
vn -0.3933 -0.7063 0.5886
vn -0.1441 -0.9658 0.2156
vn 0.1441 -0.9658 -0.2156
vn 0.3933 -0.7063 -0.5886
vn 0.5367 -0.2583 -0.8033
vn 0.4273 0.2583 -0.8664
vn 0.3131 0.7063 -0.6349
vn 0.1147 0.9658 -0.2326
vn -0.1147 0.9658 0.2326
vn -0.3131 0.7063 0.6349
vn -0.4273 0.2583 0.8664
vn -0.4273 -0.2583 0.8664
vn -0.3131 -0.7063 0.6349
vn -0.1147 -0.9658 0.2326
vn 0.1147 -0.9658 -0.2326
vn 0.3131 -0.7063 -0.6349
vn 0.4273 -0.2583 -0.8664
vn 0.3105 0.2583 -0.9148
vn 0.2275 0.7063 -0.6703
vn 0.0834 0.9658 -0.2456
vn -0.0834 0.9658 0.2456
vn -0.2275 0.7063 0.6703
vn -0.3105 0.2583 0.9148
vn -0.3105 -0.2583 0.9148
vn -0.2275 -0.7063 0.6703
vn -0.0834 -0.9658 0.2456
vn 0.0834 -0.9658 -0.2456
vn 0.2275 -0.7063 -0.6703
vn 0.3105 -0.2583 -0.9148
vn 0.1885 0.2583 -0.9475
vn 0.1381 0.7063 -0.6943
vn 0.0506 0.9658 -0.2544
vn -0.0506 0.9658 0.2544
vn -0.1381 0.7063 0.6943
vn -0.1885 0.2583 0.9475
vn -0.1885 -0.2583 0.9475
vn -0.1381 -0.7063 0.6943
vn -0.0506 -0.9658 0.2544
vn 0.0506 -0.9658 -0.2544
vn 0.1381 -0.7063 -0.6943
vn 0.1885 -0.2583 -0.9475
vn 0.0632 0.2583 -0.9640
vn 0.0463 0.7063 -0.7063
vn 0.0170 0.9658 -0.2588
vn -0.0170 0.9658 0.2588
vn -0.0463 0.7063 0.7063
vn -0.0632 0.2583 0.9640
vn -0.0632 -0.2583 0.9640
vn -0.0463 -0.7063 0.7063
vn -0.0170 -0.9658 0.2588
vn 0.0170 -0.9658 -0.2588
vn 0.0463 -0.7063 -0.7063
vn 0.0632 -0.2583 -0.9640
vn -0.0632 0.2583 -0.9640
vn -0.0463 0.7063 -0.7063
vn -0.0170 0.9658 -0.2588
vn 0.0170 0.9658 0.2588
vn 0.0463 0.7063 0.7063
vn 0.0632 0.2583 0.9640
vn 0.0632 -0.2583 0.9640
vn 0.0463 -0.7063 0.7063
vn 0.0170 -0.9658 0.2588
vn -0.0170 -0.9658 -0.2588
vn -0.0463 -0.7063 -0.7063
vn -0.0632 -0.2583 -0.9640
vn -0.1885 0.2583 -0.9475
vn -0.1381 0.7063 -0.6943
vn -0.0506 0.9658 -0.2544
vn 0.0506 0.9658 0.2544
vn 0.1381 0.7063 0.6943
vn 0.1885 0.2583 0.9475
vn 0.1885 -0.2583 0.9475
vn 0.1381 -0.7063 0.6943
vn 0.0506 -0.9658 0.2544
vn -0.0506 -0.9658 -0.2544
vn -0.1381 -0.7063 -0.6943
vn -0.1885 -0.2583 -0.9475
vn -0.3105 0.2583 -0.9148
vn -0.2275 0.7063 -0.6703
vn -0.0834 0.9658 -0.2456
vn 0.0834 0.9658 0.2456
vn 0.2275 0.7063 0.6703
vn 0.3105 0.2583 0.9148
vn 0.3105 -0.2583 0.9148
vn 0.2275 -0.7063 0.6703
vn 0.0834 -0.9658 0.2456
vn -0.0834 -0.9658 -0.2456
vn -0.2275 -0.7063 -0.6703
vn -0.3105 -0.2583 -0.9148
vn -0.4273 0.2583 -0.8664
vn -0.3131 0.7063 -0.6349
vn -0.1147 0.9658 -0.2326
vn 0.1147 0.9658 0.2326
vn 0.3131 0.7063 0.6349
vn 0.4273 0.2583 0.8664
vn 0.4273 -0.2583 0.8664
vn 0.3131 -0.7063 0.6349
vn 0.1147 -0.9658 0.2326
vn -0.1147 -0.9658 -0.2326
vn -0.3131 -0.7063 -0.6349
vn -0.4273 -0.2583 -0.8664
vn -0.5367 0.2583 -0.8033
vn -0.3933 0.7063 -0.5886
vn -0.1441 0.9658 -0.2156
vn 0.1441 0.9658 0.2156
vn 0.3933 0.7063 0.5886
vn 0.5367 0.2583 0.8033
vn 0.5367 -0.2583 0.8033
vn 0.3933 -0.7063 0.5886
vn 0.1441 -0.9658 0.2156
vn -0.1441 -0.9658 -0.2156
vn -0.3933 -0.7063 -0.5886
vn -0.5367 -0.2583 -0.8033
vn -0.6370 0.2583 -0.7263
vn -0.4667 0.7063 -0.5322
vn -0.1710 0.9658 -0.1950
vn 0.1710 0.9658 0.1950
vn 0.4667 0.7063 0.5322
vn 0.6370 0.2583 0.7263
vn 0.6370 -0.2583 0.7263
vn 0.4667 -0.7063 0.5322
vn 0.1710 -0.9658 0.1950
vn -0.1710 -0.9658 -0.1950
vn -0.4667 -0.7063 -0.5322
vn -0.6370 -0.2583 -0.7263
vn -0.7263 0.2583 -0.6370
vn -0.5322 0.7063 -0.4667
vn -0.1950 0.9658 -0.1710
vn 0.1950 0.9658 0.1710
vn 0.5322 0.7063 0.4667
vn 0.7263 0.2583 0.6370
vn 0.7263 -0.2583 0.6370
vn 0.5322 -0.7063 0.4667
vn 0.1950 -0.9658 0.1710
vn -0.1950 -0.9658 -0.1710
vn -0.5322 -0.7063 -0.4667
vn -0.7263 -0.2583 -0.6370
vn -0.8033 0.2583 -0.5367
vn -0.5886 0.7063 -0.3933
vn -0.2156 0.9658 -0.1441
vn 0.2156 0.9658 0.1441
vn 0.5886 0.7063 0.3933
vn 0.8033 0.2583 0.5367
vn 0.8033 -0.2583 0.5367
vn 0.5886 -0.7063 0.3933
vn 0.2156 -0.9658 0.1441
vn -0.2156 -0.9658 -0.1441
vn -0.5886 -0.7063 -0.3933
vn -0.8033 -0.2583 -0.5367
vn -0.8664 0.2583 -0.4273
vn -0.6349 0.7063 -0.3131
vn -0.2326 0.9658 -0.1147
vn 0.2326 0.9658 0.1147
vn 0.6349 0.7063 0.3131
vn 0.8664 0.2583 0.4273
vn 0.8664 -0.2583 0.4273
vn 0.6349 -0.7063 0.3131
vn 0.2326 -0.9658 0.1147
vn -0.2326 -0.9658 -0.1147
vn -0.6349 -0.7063 -0.3131
vn -0.8664 -0.2583 -0.4273
vn -0.9148 0.2583 -0.3105
vn -0.6703 0.7063 -0.2275
vn -0.2456 0.9658 -0.0834
vn 0.2456 0.9658 0.0834
vn 0.6703 0.7063 0.2275
vn 0.9148 0.2583 0.3105
vn 0.9148 -0.2583 0.3105
vn 0.6703 -0.7063 0.2275
vn 0.2456 -0.9658 0.0834
vn -0.2456 -0.9658 -0.0834
vn -0.6703 -0.7063 -0.2275
vn -0.9148 -0.2583 -0.3105
vn -0.9475 0.2583 -0.1885
vn -0.6943 0.7063 -0.1381
vn -0.2544 0.9658 -0.0506
vn 0.2544 0.9658 0.0506
vn 0.6943 0.7063 0.1381
vn 0.9475 0.2583 0.1885
vn 0.9475 -0.2583 0.1885
vn 0.6943 -0.7063 0.1381
vn 0.2544 -0.9658 0.0506
vn -0.2544 -0.9658 -0.0506
vn -0.6943 -0.7063 -0.1381
vn -0.9475 -0.2583 -0.1885
vn -0.9640 0.2583 -0.0632
vn -0.7063 0.7063 -0.0463
vn -0.2588 0.9658 -0.0170
vn 0.2588 0.9658 0.0170
vn 0.7063 0.7063 0.0463
vn 0.9640 0.2583 0.0632
vn 0.9640 -0.2583 0.0632
vn 0.7063 -0.7063 0.0463
vn 0.2588 -0.9658 0.0170
vn -0.2588 -0.9658 -0.0170
vn -0.7063 -0.7063 -0.0463
vn -0.9640 -0.2583 -0.0632
usemtl None
s off
f 2/1/1 3/2/1 1/3/1
f 4/4/2 5/5/2 3/2/2
f 6/6/3 7/7/3 5/5/3
f 8/8/4 9/9/4 7/7/4
f 10/10/5 11/11/5 9/9/5
f 12/12/6 13/13/6 11/11/6
f 14/14/7 15/15/7 13/13/7
f 16/16/8 17/17/8 15/15/8
f 18/18/9 19/19/9 17/17/9
f 20/20/10 21/21/10 19/19/10
f 22/22/11 23/23/11 21/21/11
f 24/24/12 25/25/12 23/23/12
f 26/26/13 27/27/13 25/25/13
f 28/28/14 29/29/14 27/27/14
f 30/30/15 31/31/15 29/29/15
f 32/32/16 33/33/16 31/31/16
f 34/34/17 35/35/17 33/33/17
f 36/36/18 37/37/18 35/35/18
f 38/38/19 39/39/19 37/37/19
f 40/40/20 41/41/20 39/39/20
f 42/42/21 43/43/21 41/41/21
f 44/44/22 45/45/22 43/43/22
f 46/46/23 47/47/23 45/45/23
f 48/48/24 49/49/24 47/47/24
f 50/50/25 51/51/25 49/49/25
f 52/52/26 53/53/26 51/51/26
f 54/54/27 55/55/27 53/53/27
f 56/56/28 57/57/28 55/55/28
f 58/58/29 59/59/29 57/57/29
f 60/60/30 61/61/30 59/59/30
f 54/62/31 38/63/31 22/64/31
f 62/65/32 63/66/32 61/61/32
f 64/67/33 1/68/33 63/66/33
f 15/69/34 31/70/34 47/71/34
f 77/72/35 66/73/35 65/74/35
f 66/73/36 79/75/36 67/76/36
f 79/75/37 68/77/37 67/76/37
f 80/78/38 69/79/38 68/77/38
f 81/80/39 70/81/39 69/79/39
f 70/81/40 83/82/40 71/83/40
f 83/84/41 72/85/41 71/86/41
f 84/87/42 73/88/42 72/85/42
f 85/89/43 74/90/43 73/88/43
f 86/91/44 75/92/44 74/90/44
f 87/93/45 76/94/45 75/92/45
f 88/95/46 65/74/46 76/94/46
f 89/96/47 78/97/47 77/72/47
f 90/98/48 79/75/48 78/97/48
f 91/99/49 80/78/49 79/75/49
f 92/100/50 81/80/50 80/78/50
f 81/80/51 94/101/51 82/102/51
f 94/101/52 83/82/52 82/102/52
f 95/103/53 84/87/53 83/84/53
f 96/104/54 85/89/54 84/87/54
f 85/89/55 98/105/55 86/91/55
f 86/91/56 99/106/56 87/93/56
f 87/93/57 100/107/57 88/95/57
f 100/107/58 77/72/58 88/95/58
f 89/96/59 102/108/59 90/98/59
f 102/108/60 91/99/60 90/98/60
f 103/109/61 92/100/61 91/99/61
f 92/100/62 105/110/62 93/111/62
f 93/111/63 106/112/63 94/101/63
f 94/101/64 107/113/64 95/114/64
f 107/115/65 96/104/65 95/103/65
f 108/116/66 97/117/66 96/104/66
f 97/117/67 110/118/67 98/105/67
f 98/105/68 111/119/68 99/106/68
f 99/106/69 112/120/69 100/107/69
f 112/120/70 89/96/70 100/107/70
f 101/121/71 114/122/71 102/108/71
f 102/108/72 115/123/72 103/109/72
f 103/109/73 116/124/73 104/125/73
f 116/124/74 105/110/74 104/125/74
f 105/110/75 118/126/75 106/112/75
f 118/126/76 107/113/76 106/112/76
f 119/127/77 108/116/77 107/115/77
f 120/128/78 109/129/78 108/116/78
f 109/129/79 122/130/79 110/118/79
f 122/130/80 111/119/80 110/118/80
f 123/131/81 112/120/81 111/119/81
f 124/132/82 101/121/82 112/120/82
f 125/133/83 114/122/83 113/134/83
f 114/122/84 127/135/84 115/123/84
f 127/135/85 116/124/85 115/123/85
f 128/136/86 117/137/86 116/124/86
f 117/137/87 130/138/87 118/126/87
f 130/138/88 119/139/88 118/126/88
f 131/140/89 120/128/89 119/127/89
f 132/141/90 121/142/90 120/128/90
f 133/143/91 122/130/91 121/142/91
f 134/144/92 123/131/92 122/130/92
f 135/145/93 124/132/93 123/131/93
f 124/132/94 125/133/94 113/134/94
f 137/146/95 126/147/95 125/133/95
f 138/148/96 127/135/96 126/147/96
f 139/149/97 128/136/97 127/135/97
f 140/150/98 129/151/98 128/136/98
f 141/152/99 130/138/99 129/151/99
f 142/153/100 131/154/100 130/138/100
f 131/140/101 144/155/101 132/141/101
f 144/155/102 133/143/102 132/141/102
f 145/156/103 134/144/103 133/143/103
f 146/157/104 135/145/104 134/144/104
f 135/145/105 148/158/105 136/159/105
f 148/158/106 125/133/106 136/159/106
f 149/160/107 138/148/107 137/146/107
f 138/148/108 151/161/108 139/149/108
f 151/161/109 140/150/109 139/149/109
f 152/162/110 141/152/110 140/150/110
f 141/152/111 154/163/111 142/153/111
f 154/163/112 143/164/112 142/153/112
f 155/165/113 144/155/113 143/166/113
f 156/167/114 145/156/114 144/155/114
f 145/156/115 158/168/115 146/157/115
f 146/157/116 159/169/116 147/170/116
f 159/169/117 148/158/117 147/170/117
f 160/171/118 137/146/118 148/158/118
f 161/172/119 150/173/119 149/160/119
f 150/173/120 163/174/120 151/161/120
f 151/161/121 164/175/121 152/162/121
f 164/175/122 153/176/122 152/162/122
f 153/176/123 166/177/123 154/163/123
f 166/177/124 155/178/124 154/163/124
f 167/179/125 156/167/125 155/165/125
f 168/180/126 157/181/126 156/167/126
f 169/182/127 158/168/127 157/181/127
f 170/183/128 159/169/128 158/168/128
f 171/184/129 160/171/129 159/169/129
f 172/185/130 149/160/130 160/171/130
f 161/172/131 174/186/131 162/187/131
f 174/186/132 163/174/132 162/187/132
f 175/188/133 164/175/133 163/174/133
f 176/189/134 165/190/134 164/175/134
f 177/191/135 166/177/135 165/190/135
f 178/192/136 167/193/136 166/177/136
f 179/194/137 168/180/137 167/179/137
f 180/195/138 169/182/138 168/180/138
f 169/182/139 182/196/139 170/183/139
f 170/183/140 183/197/140 171/184/140
f 183/197/141 172/185/141 171/184/141
f 184/198/142 161/172/142 172/185/142
f 185/199/143 174/186/143 173/200/143
f 186/201/144 175/188/144 174/186/144
f 187/202/145 176/189/145 175/188/145
f 188/203/146 177/191/146 176/189/146
f 177/191/147 190/204/147 178/192/147
f 190/204/148 179/205/148 178/192/148
f 191/206/149 180/195/149 179/194/149
f 192/207/150 181/208/150 180/195/150
f 193/209/151 182/196/151 181/208/151
f 194/210/152 183/197/152 182/196/152
f 195/211/153 184/198/153 183/197/153
f 196/212/154 173/200/154 184/198/154
f 197/213/155 186/201/155 185/199/155
f 198/214/156 187/202/156 186/201/156
f 187/202/157 200/215/157 188/203/157
f 200/215/158 189/216/158 188/203/158
f 201/217/159 190/204/159 189/216/159
f 202/218/160 191/219/160 190/204/160
f 191/206/161 204/220/161 192/207/161
f 204/220/162 193/209/162 192/207/162
f 193/209/163 206/221/163 194/210/163
f 206/221/164 195/211/164 194/210/164
f 207/222/165 196/212/165 195/211/165
f 208/223/166 185/199/166 196/212/166
f 209/224/167 198/214/167 197/213/167
f 210/225/168 199/226/168 198/214/168
f 211/227/169 200/215/169 199/226/169
f 200/215/170 213/228/170 201/217/170
f 201/217/171 214/229/171 202/218/171
f 214/229/172 203/230/172 202/218/172
f 215/231/173 204/220/173 203/232/173
f 216/233/174 205/234/174 204/220/174
f 217/235/175 206/221/175 205/234/175
f 218/236/176 207/222/176 206/221/176
f 219/237/177 208/223/177 207/222/177
f 208/223/178 209/224/178 197/213/178
f 221/238/179 210/225/179 209/224/179
f 222/239/180 211/227/180 210/225/180
f 223/240/181 212/241/181 211/227/181
f 224/242/182 213/228/182 212/241/182
f 225/243/183 214/229/183 213/228/183
f 226/244/184 215/245/184 214/229/184
f 215/231/185 228/246/185 216/233/185
f 228/246/186 217/235/186 216/233/186
f 217/235/187 230/247/187 218/236/187
f 218/236/188 231/248/188 219/237/188
f 219/237/189 232/249/189 220/250/189
f 220/250/190 221/238/190 209/224/190
f 233/251/191 222/239/191 221/238/191
f 222/239/192 235/252/192 223/240/192
f 223/240/193 236/253/193 224/242/193
f 236/253/194 225/243/194 224/242/194
f 237/254/195 226/244/195 225/243/195
f 238/255/196 227/256/196 226/244/196
f 239/257/197 228/246/197 227/258/197
f 240/259/198 229/260/198 228/246/198
f 241/261/199 230/247/199 229/260/199
f 242/262/200 231/248/200 230/247/200
f 243/263/201 232/249/201 231/248/201
f 244/264/202 221/238/202 232/249/202
f 245/265/203 234/266/203 233/251/203
f 246/267/204 235/252/204 234/266/204
f 247/268/205 236/253/205 235/252/205
f 236/253/206 249/269/206 237/254/206
f 249/269/207 238/255/207 237/254/207
f 250/270/208 239/271/208 238/255/208
f 251/272/209 240/259/209 239/257/209
f 252/273/210 241/261/210 240/259/210
f 241/261/211 254/274/211 242/262/211
f 254/274/212 243/263/212 242/262/212
f 243/263/213 256/275/213 244/264/213
f 256/275/214 233/251/214 244/264/214
f 257/276/215 246/267/215 245/265/215
f 246/267/216 259/277/216 247/268/216
f 259/277/217 248/278/217 247/268/217
f 260/279/218 249/269/218 248/278/218
f 261/280/219 250/270/219 249/269/219
f 262/281/220 251/282/220 250/270/220
f 263/283/221 252/273/221 251/272/221
f 264/284/222 253/285/222 252/273/222
f 265/286/223 254/274/223 253/285/223
f 266/287/224 255/288/224 254/274/224
f 267/289/225 256/275/225 255/288/225
f 268/290/226 245/265/226 256/275/226
f 269/291/227 258/292/227 257/276/227
f 270/293/228 259/277/228 258/292/228
f 271/294/229 260/279/229 259/277/229
f 272/295/230 261/280/230 260/279/230
f 273/296/231 262/281/231 261/280/231
f 262/281/232 275/297/232 263/298/232
f 275/299/233 264/284/233 263/283/233
f 264/284/234 277/300/234 265/286/234
f 265/286/235 278/301/235 266/287/235
f 266/287/236 279/302/236 267/289/236
f 267/289/237 280/303/237 268/290/237
f 280/303/238 257/276/238 268/290/238
f 281/304/239 270/293/239 269/291/239
f 282/305/240 271/294/240 270/293/240
f 271/294/241 284/306/241 272/295/241
f 284/306/242 273/296/242 272/295/242
f 285/307/243 274/308/243 273/296/243
f 286/309/244 275/297/244 274/308/244
f 287/310/245 276/311/245 275/299/245
f 276/311/246 289/312/246 277/300/246
f 289/312/247 278/301/247 277/300/247
f 290/313/248 279/302/248 278/301/248
f 291/314/249 280/303/249 279/302/249
f 292/315/250 269/291/250 280/303/250
f 293/316/251 282/305/251 281/304/251
f 294/317/252 283/318/252 282/305/252
f 295/319/253 284/306/253 283/318/253
f 284/306/254 297/320/254 285/307/254
f 297/320/255 286/309/255 285/307/255
f 298/321/256 287/322/256 286/309/256
f 299/323/257 288/324/257 287/310/257
f 288/324/258 301/325/258 289/312/258
f 301/325/259 290/313/259 289/312/259
f 302/326/260 291/314/260 290/313/260
f 291/314/261 304/327/261 292/315/261
f 304/327/262 281/304/262 292/315/262
f 293/316/263 306/328/263 294/317/263
f 306/328/264 295/319/264 294/317/264
f 295/319/265 308/329/265 296/330/265
f 308/329/266 297/320/266 296/330/266
f 309/331/267 298/321/267 297/320/267
f 310/332/268 299/333/268 298/321/268
f 311/334/269 300/335/269 299/323/269
f 312/336/270 301/325/270 300/335/270
f 301/325/271 314/337/271 302/326/271
f 314/337/272 303/338/272 302/326/272
f 315/339/273 304/327/273 303/338/273
f 316/340/274 293/316/274 304/327/274
f 317/341/275 306/328/275 305/342/275
f 318/343/276 307/344/276 306/328/276
f 319/345/277 308/329/277 307/344/277
f 308/329/278 321/346/278 309/331/278
f 321/346/279 310/332/279 309/331/279
f 322/347/280 311/348/280 310/332/280
f 311/334/281 324/349/281 312/336/281
f 324/349/282 313/350/282 312/336/282
f 325/351/283 314/337/283 313/350/283
f 326/352/284 315/339/284 314/337/284
f 315/339/285 328/353/285 316/340/285
f 328/353/286 305/342/286 316/340/286
f 317/341/287 330/354/287 318/343/287
f 330/354/288 319/345/288 318/343/288
f 331/355/289 320/356/289 319/345/289
f 320/356/290 333/357/290 321/346/290
f 333/357/291 322/347/291 321/346/291
f 334/358/292 323/359/292 322/347/292
f 335/360/293 324/349/293 323/361/293
f 336/362/294 325/351/294 324/349/294
f 337/363/295 326/352/295 325/351/295
f 326/352/296 339/364/296 327/365/296
f 339/364/297 328/353/297 327/365/297
f 340/366/298 317/341/298 328/353/298
f 341/367/299 330/354/299 329/368/299
f 342/369/300 331/355/300 330/354/300
f 343/370/301 332/371/301 331/355/301
f 344/372/302 333/357/302 332/371/302
f 345/373/303 334/358/303 333/357/303
f 346/374/304 335/375/304 334/358/304
f 347/376/305 336/362/305 335/360/305
f 336/362/306 349/377/306 337/363/306
f 337/363/307 350/378/307 338/379/307
f 338/379/308 351/380/308 339/364/308
f 339/364/309 352/381/309 340/366/309
f 340/366/310 341/367/310 329/368/310
f 341/367/311 354/382/311 342/369/311
f 354/382/312 343/370/312 342/369/312
f 355/383/313 344/372/313 343/370/313
f 356/384/314 345/373/314 344/372/314
f 357/385/315 346/374/315 345/373/315
f 358/386/316 347/387/316 346/374/316
f 359/388/317 348/389/317 347/376/317
f 348/389/318 361/390/318 349/377/318
f 361/390/319 350/378/319 349/377/319
f 362/391/320 351/380/320 350/378/320
f 363/392/321 352/381/321 351/380/321
f 364/393/322 341/367/322 352/381/322
f 365/394/40 354/395/40 353/396/40
f 366/397/39 355/398/39 354/395/39
f 367/399/38 356/400/38 355/398/38
f 368/401/37 357/402/37 356/400/37
f 369/403/36 358/404/36 357/402/36
f 370/405/35 359/406/35 358/404/35
f 359/407/46 372/408/46 360/409/46
f 372/408/45 361/410/45 360/409/45
f 361/410/44 374/411/44 362/412/44
f 362/412/43 375/413/43 363/414/43
f 363/414/42 376/415/42 364/416/42
f 364/416/41 365/394/41 353/396/41
f 365/394/52 378/417/52 366/397/52
f 366/397/51 379/418/51 367/399/51
f 367/399/50 380/419/50 368/401/50
f 368/401/49 381/420/49 369/403/49
f 369/403/48 382/421/48 370/405/48
f 382/421/47 371/422/47 370/405/47
f 383/423/58 372/408/58 371/424/58
f 384/425/57 373/426/57 372/408/57
f 385/427/56 374/411/56 373/426/56
f 386/428/55 375/413/55 374/411/55
f 387/429/54 376/415/54 375/413/54
f 376/415/53 377/430/53 365/394/53
f 389/431/64 378/417/64 377/430/64
f 390/432/63 379/418/63 378/417/63
f 379/418/62 392/433/62 380/419/62
f 392/433/61 381/420/61 380/419/61
f 393/434/60 382/421/60 381/420/60
f 394/435/59 383/436/59 382/421/59
f 395/437/70 384/425/70 383/423/70
f 384/425/69 397/438/69 385/427/69
f 397/438/68 386/428/68 385/427/68
f 398/439/67 387/429/67 386/428/67
f 387/429/66 400/440/66 388/441/66
f 388/441/65 389/431/65 377/430/65
f 401/442/76 390/432/76 389/431/76
f 402/443/75 391/444/75 390/432/75
f 403/445/74 392/433/74 391/444/74
f 404/446/73 393/434/73 392/433/73
f 405/447/72 394/435/72 393/434/72
f 394/435/71 407/448/71 395/449/71
f 407/450/82 396/451/82 395/437/82
f 408/452/81 397/438/81 396/451/81
f 409/453/80 398/439/80 397/438/80
f 398/439/79 411/454/79 399/455/79
f 399/455/78 412/456/78 400/440/78
f 412/456/77 389/431/77 400/440/77
f 413/457/88 402/443/88 401/442/88
f 414/458/87 403/445/87 402/443/87
f 415/459/86 404/446/86 403/445/86
f 404/446/85 417/460/85 405/447/85
f 417/460/84 406/461/84 405/447/84
f 418/462/83 407/448/83 406/461/83
f 419/463/94 408/452/94 407/450/94
f 408/452/93 421/464/93 409/453/93
f 421/464/92 410/465/92 409/453/92
f 422/466/91 411/454/91 410/465/91
f 411/454/90 424/467/90 412/456/90
f 424/467/89 401/442/89 412/456/89
f 425/468/100 414/458/100 413/457/100
f 414/458/99 427/469/99 415/459/99
f 427/469/98 416/470/98 415/459/98
f 428/471/97 417/460/97 416/470/97
f 429/472/96 418/462/96 417/460/96
f 430/473/95 419/474/95 418/462/95
f 431/475/106 420/476/106 419/463/106
f 432/477/105 421/464/105 420/476/105
f 421/464/104 434/478/104 422/466/104
f 434/478/103 423/479/103 422/466/103
f 435/480/102 424/467/102 423/479/102
f 436/481/101 413/457/101 424/467/101
f 425/468/112 438/482/112 426/483/112
f 426/483/111 439/484/111 427/469/111
f 439/484/110 428/471/110 427/469/110
f 428/471/109 441/485/109 429/472/109
f 441/485/108 430/473/108 429/472/108
f 442/486/107 431/487/107 430/473/107
f 443/488/118 432/477/118 431/475/118
f 444/489/117 433/490/117 432/477/117
f 445/491/116 434/478/116 433/490/116
f 446/492/115 435/480/115 434/478/115
f 447/493/114 436/481/114 435/480/114
f 448/494/113 425/468/113 436/481/113
f 437/495/124 450/496/124 438/482/124
f 450/496/123 439/484/123 438/482/123
f 451/497/122 440/498/122 439/484/122
f 452/499/121 441/485/121 440/498/121
f 441/485/120 454/500/120 442/486/120
f 454/500/119 443/501/119 442/486/119
f 455/502/130 444/489/130 443/488/130
f 456/503/129 445/491/129 444/489/129
f 457/504/128 446/492/128 445/491/128
f 446/492/127 459/505/127 447/493/127
f 447/493/126 460/506/126 448/494/126
f 460/506/125 437/495/125 448/494/125
f 461/507/136 450/496/136 449/508/136
f 462/509/135 451/497/135 450/496/135
f 463/510/134 452/499/134 451/497/134
f 464/511/133 453/512/133 452/499/133
f 465/513/132 454/500/132 453/512/132
f 466/514/131 455/515/131 454/500/131
f 467/516/142 456/503/142 455/502/142
f 468/517/141 457/504/141 456/503/141
f 457/504/140 470/518/140 458/519/140
f 470/518/139 459/505/139 458/519/139
f 459/505/138 472/520/138 460/506/138
f 472/520/137 449/508/137 460/506/137
f 473/521/148 462/509/148 461/507/148
f 474/522/147 463/510/147 462/509/147
f 475/523/146 464/511/146 463/510/146
f 476/524/145 465/513/145 464/511/145
f 465/513/144 478/525/144 466/514/144
f 478/525/143 467/526/143 466/514/143
f 479/527/154 468/517/154 467/516/154
f 480/528/153 469/529/153 468/517/153
f 481/530/152 470/518/152 469/529/152
f 482/531/151 471/532/151 470/518/151
f 471/532/150 484/533/150 472/520/150
f 484/533/149 461/507/149 472/520/149
f 485/534/160 474/522/160 473/521/160
f 474/522/159 487/535/159 475/523/159
f 487/535/158 476/524/158 475/523/158
f 488/536/157 477/537/157 476/524/157
f 477/537/156 490/538/156 478/525/156
f 490/538/155 479/539/155 478/525/155
f 491/540/166 480/528/166 479/527/166
f 492/541/165 481/530/165 480/528/165
f 481/530/164 494/542/164 482/531/164
f 494/542/163 483/543/163 482/531/163
f 495/544/162 484/533/162 483/543/162
f 496/545/161 473/521/161 484/533/161
f 497/546/172 486/547/172 485/534/172
f 498/548/171 487/535/171 486/547/171
f 487/535/170 500/549/170 488/536/170
f 488/536/169 501/550/169 489/551/169
f 501/550/168 490/538/168 489/551/168
f 490/538/167 503/552/167 491/553/167
f 503/554/178 492/541/178 491/540/178
f 504/555/177 493/556/177 492/541/177
f 505/557/176 494/542/176 493/556/176
f 506/558/175 495/544/175 494/542/175
f 507/559/174 496/545/174 495/544/174
f 508/560/173 485/534/173 496/545/173
f 497/546/184 510/561/184 498/548/184
f 510/561/183 499/562/183 498/548/183
f 511/563/182 500/549/182 499/562/182
f 512/564/181 501/550/181 500/549/181
f 513/565/180 502/566/180 501/550/180
f 514/567/179 503/552/179 502/566/179
f 515/568/190 504/555/190 503/554/190
f 504/555/189 517/569/189 505/557/189
f 505/557/188 518/570/188 506/558/188
f 518/570/187 507/559/187 506/558/187
f 519/571/186 508/560/186 507/559/186
f 520/572/185 497/546/185 508/560/185
f 521/573/196 510/561/196 509/574/196
f 522/575/195 511/563/195 510/561/195
f 523/576/194 512/564/194 511/563/194
f 524/577/193 513/565/193 512/564/193
f 525/578/192 514/567/192 513/565/192
f 514/567/191 527/579/191 515/580/191
f 527/581/202 516/582/202 515/568/202
f 528/583/201 517/569/201 516/582/201
f 517/569/200 530/584/200 518/570/200
f 518/570/199 531/585/199 519/571/199
f 531/585/198 520/572/198 519/571/198
f 532/586/197 509/574/197 520/572/197
f 533/587/208 522/575/208 521/573/208
f 534/588/207 523/576/207 522/575/207
f 535/589/206 524/577/206 523/576/206
f 536/590/205 525/578/205 524/577/205
f 537/591/204 526/592/204 525/578/204
f 538/593/203 527/579/203 526/592/203
f 539/594/214 528/583/214 527/581/214
f 540/595/213 529/596/213 528/583/213
f 541/597/212 530/584/212 529/596/212
f 530/584/211 543/598/211 531/585/211
f 531/585/210 544/599/210 532/586/210
f 544/599/209 521/573/209 532/586/209
f 545/600/220 534/588/220 533/587/220
f 546/601/219 535/589/219 534/588/219
f 535/589/218 548/602/218 536/590/218
f 536/590/217 549/603/217 537/591/217
f 549/603/216 538/593/216 537/591/216
f 550/604/215 539/605/215 538/593/215
f 551/606/226 540/595/226 539/594/226
f 552/607/225 541/597/225 540/595/225
f 553/608/224 542/609/224 541/597/224
f 554/610/223 543/598/223 542/609/223
f 555/611/222 544/599/222 543/598/222
f 544/599/221 545/600/221 533/587/221
f 545/600/232 558/612/232 546/601/232
f 558/612/231 547/613/231 546/601/231
f 559/614/230 548/602/230 547/613/230
f 560/615/229 549/603/229 548/602/229
f 561/616/228 550/604/228 549/603/228
f 562/617/227 551/618/227 550/604/227
f 563/619/238 552/607/238 551/606/238
f 564/620/237 553/608/237 552/607/237
f 565/621/236 554/610/236 553/608/236
f 566/622/235 555/611/235 554/610/235
f 555/611/234 568/623/234 556/624/234
f 568/623/233 545/600/233 556/624/233
f 557/625/244 570/626/244 558/612/244
f 570/626/243 559/614/243 558/612/243
f 559/614/242 572/627/242 560/615/242
f 560/615/241 573/628/241 561/616/241
f 561/616/240 574/629/240 562/617/240
f 574/629/239 563/630/239 562/617/239
f 575/631/250 564/620/250 563/619/250
f 576/632/249 565/621/249 564/620/249
f 577/633/248 566/622/248 565/621/248
f 578/634/247 567/635/247 566/622/247
f 567/635/246 580/636/246 568/623/246
f 580/636/245 557/625/245 568/623/245
f 569/637/256 582/638/256 570/626/256
f 582/638/255 571/639/255 570/626/255
f 571/639/254 584/640/254 572/627/254
f 584/640/253 573/628/253 572/627/253
f 585/641/252 574/629/252 573/628/252
f 586/642/251 575/643/251 574/629/251
f 587/644/262 576/632/262 575/631/262
f 576/632/261 589/645/261 577/633/261
f 577/633/260 590/646/260 578/634/260
f 590/646/259 579/647/259 578/634/259
f 591/648/258 580/636/258 579/647/258
f 592/649/257 569/637/257 580/636/257
f 593/650/268 582/638/268 581/651/268
f 594/652/267 583/653/267 582/638/267
f 595/654/266 584/640/266 583/653/266
f 596/655/265 585/641/265 584/640/265
f 597/656/264 586/642/264 585/641/264
f 598/657/263 587/658/263 586/642/263
f 599/659/274 588/660/274 587/644/274
f 588/660/273 601/661/273 589/645/273
f 601/661/272 590/646/272 589/645/272
f 602/662/271 591/648/271 590/646/271
f 591/648/270 604/663/270 592/649/270
f 604/663/269 581/651/269 592/649/269
f 605/664/280 594/652/280 593/650/280
f 606/665/279 595/654/279 594/652/279
f 595/654/278 608/666/278 596/655/278
f 608/666/277 597/656/277 596/655/277
f 609/667/276 598/657/276 597/656/276
f 610/668/275 599/669/275 598/657/275
f 611/670/286 600/671/286 599/659/286
f 612/672/285 601/661/285 600/671/285
f 613/673/284 602/662/284 601/661/284
f 614/674/283 603/675/283 602/662/283
f 615/676/282 604/663/282 603/675/282
f 616/677/281 593/650/281 604/663/281
f 617/678/292 606/665/292 605/664/292
f 618/679/291 607/680/291 606/665/291
f 619/681/290 608/666/290 607/680/290
f 620/682/289 609/667/289 608/666/289
f 621/683/288 610/668/288 609/667/288
f 622/684/287 611/685/287 610/668/287
f 623/686/298 612/672/298 611/670/298
f 612/672/297 625/687/297 613/673/297
f 625/687/296 614/674/296 613/673/296
f 626/688/295 615/676/295 614/674/295
f 627/689/294 616/677/294 615/676/294
f 628/690/293 605/664/293 616/677/293
f 617/678/304 630/691/304 618/679/304
f 618/679/303 631/692/303 619/681/303
f 619/681/302 632/693/302 620/682/302
f 632/693/301 621/683/301 620/682/301
f 633/694/300 622/684/300 621/683/300
f 622/684/299 635/695/299 623/696/299
f 635/697/310 624/698/310 623/686/310
f 636/699/309 625/687/309 624/698/309
f 625/687/308 638/700/308 626/688/308
f 638/700/307 627/689/307 626/688/307
f 639/701/306 628/690/306 627/689/306
f 640/702/305 617/678/305 628/690/305
f 65/74/316 630/691/316 629/703/316
f 66/73/315 631/692/315 630/691/315
f 67/76/314 632/693/314 631/692/314
f 68/77/313 633/694/313 632/693/313
f 69/79/312 634/704/312 633/694/312
f 70/81/311 635/695/311 634/704/311
f 635/697/322 72/85/322 636/699/322
f 72/85/321 637/705/321 636/699/321
f 73/88/320 638/700/320 637/705/320
f 74/90/319 639/701/319 638/700/319
f 639/701/318 76/94/318 640/702/318
f 640/702/317 65/74/317 629/703/317
f 77/72/35 78/97/35 66/73/35
f 66/73/36 78/97/36 79/75/36
f 79/75/37 80/78/37 68/77/37
f 80/78/38 81/80/38 69/79/38
f 81/80/39 82/102/39 70/81/39
f 70/81/40 82/102/40 83/82/40
f 83/84/41 84/87/41 72/85/41
f 84/87/42 85/89/42 73/88/42
f 85/89/43 86/91/43 74/90/43
f 86/91/44 87/93/44 75/92/44
f 87/93/45 88/95/45 76/94/45
f 88/95/46 77/72/46 65/74/46
f 89/96/47 90/98/47 78/97/47
f 90/98/48 91/99/48 79/75/48
f 91/99/49 92/100/49 80/78/49
f 92/100/50 93/111/50 81/80/50
f 81/80/51 93/111/51 94/101/51
f 94/101/52 95/114/52 83/82/52
f 95/103/53 96/104/53 84/87/53
f 96/104/54 97/117/54 85/89/54
f 85/89/55 97/117/55 98/105/55
f 86/91/56 98/105/56 99/106/56
f 87/93/57 99/106/57 100/107/57
f 100/107/58 89/96/58 77/72/58
f 89/96/59 101/121/59 102/108/59
f 102/108/60 103/109/60 91/99/60
f 103/109/61 104/125/61 92/100/61
f 92/100/62 104/125/62 105/110/62
f 93/111/63 105/110/63 106/112/63
f 94/101/64 106/112/64 107/113/64
f 107/115/65 108/116/65 96/104/65
f 108/116/66 109/129/66 97/117/66
f 97/117/67 109/129/67 110/118/67
f 98/105/68 110/118/68 111/119/68
f 99/106/69 111/119/69 112/120/69
f 112/120/70 101/121/70 89/96/70
f 101/121/71 113/134/71 114/122/71
f 102/108/72 114/122/72 115/123/72
f 103/109/73 115/123/73 116/124/73
f 116/124/74 117/137/74 105/110/74
f 105/110/75 117/137/75 118/126/75
f 118/126/76 119/139/76 107/113/76
f 119/127/77 120/128/77 108/116/77
f 120/128/78 121/142/78 109/129/78
f 109/129/79 121/142/79 122/130/79
f 122/130/80 123/131/80 111/119/80
f 123/131/81 124/132/81 112/120/81
f 124/132/82 113/134/82 101/121/82
f 125/133/83 126/147/83 114/122/83
f 114/122/84 126/147/84 127/135/84
f 127/135/85 128/136/85 116/124/85
f 128/136/86 129/151/86 117/137/86
f 117/137/87 129/151/87 130/138/87
f 130/138/88 131/154/88 119/139/88
f 131/140/89 132/141/89 120/128/89
f 132/141/90 133/143/90 121/142/90
f 133/143/91 134/144/91 122/130/91
f 134/144/92 135/145/92 123/131/92
f 135/145/93 136/159/93 124/132/93
f 124/132/94 136/159/94 125/133/94
f 137/146/95 138/148/95 126/147/95
f 138/148/96 139/149/96 127/135/96
f 139/149/97 140/150/97 128/136/97
f 140/150/98 141/152/98 129/151/98
f 141/152/99 142/153/99 130/138/99
f 142/153/100 143/164/100 131/154/100
f 131/140/101 143/166/101 144/155/101
f 144/155/102 145/156/102 133/143/102
f 145/156/103 146/157/103 134/144/103
f 146/157/104 147/170/104 135/145/104
f 135/145/105 147/170/105 148/158/105
f 148/158/106 137/146/106 125/133/106
f 149/160/107 150/173/107 138/148/107
f 138/148/108 150/173/108 151/161/108
f 151/161/109 152/162/109 140/150/109
f 152/162/110 153/176/110 141/152/110
f 141/152/111 153/176/111 154/163/111
f 154/163/112 155/178/112 143/164/112
f 155/165/113 156/167/113 144/155/113
f 156/167/114 157/181/114 145/156/114
f 145/156/115 157/181/115 158/168/115
f 146/157/116 158/168/116 159/169/116
f 159/169/117 160/171/117 148/158/117
f 160/171/118 149/160/118 137/146/118
f 161/172/119 162/187/119 150/173/119
f 150/173/120 162/187/120 163/174/120
f 151/161/121 163/174/121 164/175/121
f 164/175/122 165/190/122 153/176/122
f 153/176/123 165/190/123 166/177/123
f 166/177/124 167/193/124 155/178/124
f 167/179/125 168/180/125 156/167/125
f 168/180/126 169/182/126 157/181/126
f 169/182/127 170/183/127 158/168/127
f 170/183/128 171/184/128 159/169/128
f 171/184/129 172/185/129 160/171/129
f 172/185/130 161/172/130 149/160/130
f 161/172/131 173/200/131 174/186/131
f 174/186/132 175/188/132 163/174/132
f 175/188/133 176/189/133 164/175/133
f 176/189/134 177/191/134 165/190/134
f 177/191/135 178/192/135 166/177/135
f 178/192/136 179/205/136 167/193/136
f 179/194/137 180/195/137 168/180/137
f 180/195/138 181/208/138 169/182/138
f 169/182/139 181/208/139 182/196/139
f 170/183/140 182/196/140 183/197/140
f 183/197/141 184/198/141 172/185/141
f 184/198/142 173/200/142 161/172/142
f 185/199/143 186/201/143 174/186/143
f 186/201/144 187/202/144 175/188/144
f 187/202/145 188/203/145 176/189/145
f 188/203/146 189/216/146 177/191/146
f 177/191/147 189/216/147 190/204/147
f 190/204/148 191/219/148 179/205/148
f 191/206/149 192/207/149 180/195/149
f 192/207/150 193/209/150 181/208/150
f 193/209/151 194/210/151 182/196/151
f 194/210/152 195/211/152 183/197/152
f 195/211/153 196/212/153 184/198/153
f 196/212/154 185/199/154 173/200/154
f 197/213/155 198/214/155 186/201/155
f 198/214/156 199/226/156 187/202/156
f 187/202/157 199/226/157 200/215/157
f 200/215/158 201/217/158 189/216/158
f 201/217/159 202/218/159 190/204/159
f 202/218/160 203/230/160 191/219/160
f 191/206/161 203/232/161 204/220/161
f 204/220/162 205/234/162 193/209/162
f 193/209/163 205/234/163 206/221/163
f 206/221/164 207/222/164 195/211/164
f 207/222/165 208/223/165 196/212/165
f 208/223/166 197/213/166 185/199/166
f 209/224/167 210/225/167 198/214/167
f 210/225/168 211/227/168 199/226/168
f 211/227/169 212/241/169 200/215/169
f 200/215/170 212/241/170 213/228/170
f 201/217/171 213/228/171 214/229/171
f 214/229/172 215/245/172 203/230/172
f 215/231/173 216/233/173 204/220/173
f 216/233/174 217/235/174 205/234/174
f 217/235/175 218/236/175 206/221/175
f 218/236/176 219/237/176 207/222/176
f 219/237/177 220/250/177 208/223/177
f 208/223/178 220/250/178 209/224/178
f 221/238/179 222/239/179 210/225/179
f 222/239/180 223/240/180 211/227/180
f 223/240/181 224/242/181 212/241/181
f 224/242/182 225/243/182 213/228/182
f 225/243/183 226/244/183 214/229/183
f 226/244/184 227/256/184 215/245/184
f 215/231/185 227/258/185 228/246/185
f 228/246/186 229/260/186 217/235/186
f 217/235/187 229/260/187 230/247/187
f 218/236/188 230/247/188 231/248/188
f 219/237/189 231/248/189 232/249/189
f 220/250/190 232/249/190 221/238/190
f 233/251/191 234/266/191 222/239/191
f 222/239/192 234/266/192 235/252/192
f 223/240/193 235/252/193 236/253/193
f 236/253/194 237/254/194 225/243/194
f 237/254/195 238/255/195 226/244/195
f 238/255/196 239/271/196 227/256/196
f 239/257/197 240/259/197 228/246/197
f 240/259/198 241/261/198 229/260/198
f 241/261/199 242/262/199 230/247/199
f 242/262/200 243/263/200 231/248/200
f 243/263/201 244/264/201 232/249/201
f 244/264/202 233/251/202 221/238/202
f 245/265/203 246/267/203 234/266/203
f 246/267/204 247/268/204 235/252/204
f 247/268/205 248/278/205 236/253/205
f 236/253/206 248/278/206 249/269/206
f 249/269/207 250/270/207 238/255/207
f 250/270/208 251/282/208 239/271/208
f 251/272/209 252/273/209 240/259/209
f 252/273/210 253/285/210 241/261/210
f 241/261/211 253/285/211 254/274/211
f 254/274/212 255/288/212 243/263/212
f 243/263/213 255/288/213 256/275/213
f 256/275/214 245/265/214 233/251/214
f 257/276/215 258/292/215 246/267/215
f 246/267/216 258/292/216 259/277/216
f 259/277/217 260/279/217 248/278/217
f 260/279/218 261/280/218 249/269/218
f 261/280/219 262/281/219 250/270/219
f 262/281/220 263/298/220 251/282/220
f 263/283/221 264/284/221 252/273/221
f 264/284/222 265/286/222 253/285/222
f 265/286/223 266/287/223 254/274/223
f 266/287/224 267/289/224 255/288/224
f 267/289/225 268/290/225 256/275/225
f 268/290/226 257/276/226 245/265/226
f 269/291/227 270/293/227 258/292/227
f 270/293/228 271/294/228 259/277/228
f 271/294/229 272/295/229 260/279/229
f 272/295/230 273/296/230 261/280/230
f 273/296/231 274/308/231 262/281/231
f 262/281/232 274/308/232 275/297/232
f 275/299/233 276/311/233 264/284/233
f 264/284/234 276/311/234 277/300/234
f 265/286/235 277/300/235 278/301/235
f 266/287/236 278/301/236 279/302/236
f 267/289/237 279/302/237 280/303/237
f 280/303/238 269/291/238 257/276/238
f 281/304/239 282/305/239 270/293/239
f 282/305/240 283/318/240 271/294/240
f 271/294/241 283/318/241 284/306/241
f 284/306/242 285/307/242 273/296/242
f 285/307/243 286/309/243 274/308/243
f 286/309/244 287/322/244 275/297/244
f 287/310/245 288/324/245 276/311/245
f 276/311/246 288/324/246 289/312/246
f 289/312/247 290/313/247 278/301/247
f 290/313/248 291/314/248 279/302/248
f 291/314/249 292/315/249 280/303/249
f 292/315/250 281/304/250 269/291/250
f 293/316/251 294/317/251 282/305/251
f 294/317/252 295/319/252 283/318/252
f 295/319/253 296/330/253 284/306/253
f 284/306/254 296/330/254 297/320/254
f 297/320/255 298/321/255 286/309/255
f 298/321/256 299/333/256 287/322/256
f 299/323/257 300/335/257 288/324/257
f 288/324/258 300/335/258 301/325/258
f 301/325/259 302/326/259 290/313/259
f 302/326/260 303/338/260 291/314/260
f 291/314/261 303/338/261 304/327/261
f 304/327/262 293/316/262 281/304/262
f 293/316/263 305/342/263 306/328/263
f 306/328/264 307/344/264 295/319/264
f 295/319/265 307/344/265 308/329/265
f 308/329/266 309/331/266 297/320/266
f 309/331/267 310/332/267 298/321/267
f 310/332/268 311/348/268 299/333/268
f 311/334/269 312/336/269 300/335/269
f 312/336/270 313/350/270 301/325/270
f 301/325/271 313/350/271 314/337/271
f 314/337/272 315/339/272 303/338/272
f 315/339/273 316/340/273 304/327/273
f 316/340/274 305/342/274 293/316/274
f 317/341/275 318/343/275 306/328/275
f 318/343/276 319/345/276 307/344/276
f 319/345/277 320/356/277 308/329/277
f 308/329/278 320/356/278 321/346/278
f 321/346/279 322/347/279 310/332/279
f 322/347/280 323/359/280 311/348/280
f 311/334/281 323/361/281 324/349/281
f 324/349/282 325/351/282 313/350/282
f 325/351/283 326/352/283 314/337/283
f 326/352/284 327/365/284 315/339/284
f 315/339/285 327/365/285 328/353/285
f 328/353/286 317/341/286 305/342/286
f 317/341/287 329/368/287 330/354/287
f 330/354/288 331/355/288 319/345/288
f 331/355/289 332/371/289 320/356/289
f 320/356/290 332/371/290 333/357/290
f 333/357/291 334/358/291 322/347/291
f 334/358/292 335/375/292 323/359/292
f 335/360/293 336/362/293 324/349/293
f 336/362/294 337/363/294 325/351/294
f 337/363/295 338/379/295 326/352/295
f 326/352/296 338/379/296 339/364/296
f 339/364/297 340/366/297 328/353/297
f 340/366/298 329/368/298 317/341/298
f 341/367/299 342/369/299 330/354/299
f 342/369/300 343/370/300 331/355/300
f 343/370/301 344/372/301 332/371/301
f 344/372/302 345/373/302 333/357/302
f 345/373/303 346/374/303 334/358/303
f 346/374/304 347/387/304 335/375/304
f 347/376/305 348/389/305 336/362/305
f 336/362/306 348/389/306 349/377/306
f 337/363/307 349/377/307 350/378/307
f 338/379/308 350/378/308 351/380/308
f 339/364/309 351/380/309 352/381/309
f 340/366/310 352/381/310 341/367/310
f 341/367/311 353/706/311 354/382/311
f 354/382/312 355/383/312 343/370/312
f 355/383/313 356/384/313 344/372/313
f 356/384/314 357/385/314 345/373/314
f 357/385/315 358/386/315 346/374/315
f 358/386/316 359/707/316 347/387/316
f 359/388/317 360/708/317 348/389/317
f 348/389/318 360/708/318 361/390/318
f 361/390/319 362/391/319 350/378/319
f 362/391/320 363/392/320 351/380/320
f 363/392/321 364/393/321 352/381/321
f 364/393/322 353/706/322 341/367/322
f 365/394/40 366/397/40 354/395/40
f 366/397/39 367/399/39 355/398/39
f 367/399/38 368/401/38 356/400/38
f 368/401/37 369/403/37 357/402/37
f 369/403/36 370/405/36 358/404/36
f 370/405/35 371/422/35 359/406/35
f 359/407/46 371/424/46 372/408/46
f 372/408/45 373/426/45 361/410/45
f 361/410/44 373/426/44 374/411/44
f 362/412/43 374/411/43 375/413/43
f 363/414/42 375/413/42 376/415/42
f 364/416/41 376/415/41 365/394/41
f 365/394/52 377/430/52 378/417/52
f 366/397/51 378/417/51 379/418/51
f 367/399/50 379/418/50 380/419/50
f 368/401/49 380/419/49 381/420/49
f 369/403/48 381/420/48 382/421/48
f 382/421/47 383/436/47 371/422/47
f 383/423/58 384/425/58 372/408/58
f 384/425/57 385/427/57 373/426/57
f 385/427/56 386/428/56 374/411/56
f 386/428/55 387/429/55 375/413/55
f 387/429/54 388/441/54 376/415/54
f 376/415/53 388/441/53 377/430/53
f 389/431/64 390/432/64 378/417/64
f 390/432/63 391/444/63 379/418/63
f 379/418/62 391/444/62 392/433/62
f 392/433/61 393/434/61 381/420/61
f 393/434/60 394/435/60 382/421/60
f 394/435/59 395/449/59 383/436/59
f 395/437/70 396/451/70 384/425/70
f 384/425/69 396/451/69 397/438/69
f 397/438/68 398/439/68 386/428/68
f 398/439/67 399/455/67 387/429/67
f 387/429/66 399/455/66 400/440/66
f 388/441/65 400/440/65 389/431/65
f 401/442/76 402/443/76 390/432/76
f 402/443/75 403/445/75 391/444/75
f 403/445/74 404/446/74 392/433/74
f 404/446/73 405/447/73 393/434/73
f 405/447/72 406/461/72 394/435/72
f 394/435/71 406/461/71 407/448/71
f 407/450/82 408/452/82 396/451/82
f 408/452/81 409/453/81 397/438/81
f 409/453/80 410/465/80 398/439/80
f 398/439/79 410/465/79 411/454/79
f 399/455/78 411/454/78 412/456/78
f 412/456/77 401/442/77 389/431/77
f 413/457/88 414/458/88 402/443/88
f 414/458/87 415/459/87 403/445/87
f 415/459/86 416/470/86 404/446/86
f 404/446/85 416/470/85 417/460/85
f 417/460/84 418/462/84 406/461/84
f 418/462/83 419/474/83 407/448/83
f 419/463/94 420/476/94 408/452/94
f 408/452/93 420/476/93 421/464/93
f 421/464/92 422/466/92 410/465/92
f 422/466/91 423/479/91 411/454/91
f 411/454/90 423/479/90 424/467/90
f 424/467/89 413/457/89 401/442/89
f 425/468/100 426/483/100 414/458/100
f 414/458/99 426/483/99 427/469/99
f 427/469/98 428/471/98 416/470/98
f 428/471/97 429/472/97 417/460/97
f 429/472/96 430/473/96 418/462/96
f 430/473/95 431/487/95 419/474/95
f 431/475/106 432/477/106 420/476/106
f 432/477/105 433/490/105 421/464/105
f 421/464/104 433/490/104 434/478/104
f 434/478/103 435/480/103 423/479/103
f 435/480/102 436/481/102 424/467/102
f 436/481/101 425/468/101 413/457/101
f 425/468/112 437/495/112 438/482/112
f 426/483/111 438/482/111 439/484/111
f 439/484/110 440/498/110 428/471/110
f 428/471/109 440/498/109 441/485/109
f 441/485/108 442/486/108 430/473/108
f 442/486/107 443/501/107 431/487/107
f 443/488/118 444/489/118 432/477/118
f 444/489/117 445/491/117 433/490/117
f 445/491/116 446/492/116 434/478/116
f 446/492/115 447/493/115 435/480/115
f 447/493/114 448/494/114 436/481/114
f 448/494/113 437/495/113 425/468/113
f 437/495/124 449/508/124 450/496/124
f 450/496/123 451/497/123 439/484/123
f 451/497/122 452/499/122 440/498/122
f 452/499/121 453/512/121 441/485/121
f 441/485/120 453/512/120 454/500/120
f 454/500/119 455/515/119 443/501/119
f 455/502/130 456/503/130 444/489/130
f 456/503/129 457/504/129 445/491/129
f 457/504/128 458/519/128 446/492/128
f 446/492/127 458/519/127 459/505/127
f 447/493/126 459/505/126 460/506/126
f 460/506/125 449/508/125 437/495/125
f 461/507/136 462/509/136 450/496/136
f 462/509/135 463/510/135 451/497/135
f 463/510/134 464/511/134 452/499/134
f 464/511/133 465/513/133 453/512/133
f 465/513/132 466/514/132 454/500/132
f 466/514/131 467/526/131 455/515/131
f 467/516/142 468/517/142 456/503/142
f 468/517/141 469/529/141 457/504/141
f 457/504/140 469/529/140 470/518/140
f 470/518/139 471/532/139 459/505/139
f 459/505/138 471/532/138 472/520/138
f 472/520/137 461/507/137 449/508/137
f 473/521/148 474/522/148 462/509/148
f 474/522/147 475/523/147 463/510/147
f 475/523/146 476/524/146 464/511/146
f 476/524/145 477/537/145 465/513/145
f 465/513/144 477/537/144 478/525/144
f 478/525/143 479/539/143 467/526/143
f 479/527/154 480/528/154 468/517/154
f 480/528/153 481/530/153 469/529/153
f 481/530/152 482/531/152 470/518/152
f 482/531/151 483/543/151 471/532/151
f 471/532/150 483/543/150 484/533/150
f 484/533/149 473/521/149 461/507/149
f 485/534/160 486/547/160 474/522/160
f 474/522/159 486/547/159 487/535/159
f 487/535/158 488/536/158 476/524/158
f 488/536/157 489/551/157 477/537/157
f 477/537/156 489/551/156 490/538/156
f 490/538/155 491/553/155 479/539/155
f 491/540/166 492/541/166 480/528/166
f 492/541/165 493/556/165 481/530/165
f 481/530/164 493/556/164 494/542/164
f 494/542/163 495/544/163 483/543/163
f 495/544/162 496/545/162 484/533/162
f 496/545/161 485/534/161 473/521/161
f 497/546/172 498/548/172 486/547/172
f 498/548/171 499/562/171 487/535/171
f 487/535/170 499/562/170 500/549/170
f 488/536/169 500/549/169 501/550/169
f 501/550/168 502/566/168 490/538/168
f 490/538/167 502/566/167 503/552/167
f 503/554/178 504/555/178 492/541/178
f 504/555/177 505/557/177 493/556/177
f 505/557/176 506/558/176 494/542/176
f 506/558/175 507/559/175 495/544/175
f 507/559/174 508/560/174 496/545/174
f 508/560/173 497/546/173 485/534/173
f 497/546/184 509/574/184 510/561/184
f 510/561/183 511/563/183 499/562/183
f 511/563/182 512/564/182 500/549/182
f 512/564/181 513/565/181 501/550/181
f 513/565/180 514/567/180 502/566/180
f 514/567/179 515/580/179 503/552/179
f 515/568/190 516/582/190 504/555/190
f 504/555/189 516/582/189 517/569/189
f 505/557/188 517/569/188 518/570/188
f 518/570/187 519/571/187 507/559/187
f 519/571/186 520/572/186 508/560/186
f 520/572/185 509/574/185 497/546/185
f 521/573/196 522/575/196 510/561/196
f 522/575/195 523/576/195 511/563/195
f 523/576/194 524/577/194 512/564/194
f 524/577/193 525/578/193 513/565/193
f 525/578/192 526/592/192 514/567/192
f 514/567/191 526/592/191 527/579/191
f 527/581/202 528/583/202 516/582/202
f 528/583/201 529/596/201 517/569/201
f 517/569/200 529/596/200 530/584/200
f 518/570/199 530/584/199 531/585/199
f 531/585/198 532/586/198 520/572/198
f 532/586/197 521/573/197 509/574/197
f 533/587/208 534/588/208 522/575/208
f 534/588/207 535/589/207 523/576/207
f 535/589/206 536/590/206 524/577/206
f 536/590/205 537/591/205 525/578/205
f 537/591/204 538/593/204 526/592/204
f 538/593/203 539/605/203 527/579/203
f 539/594/214 540/595/214 528/583/214
f 540/595/213 541/597/213 529/596/213
f 541/597/212 542/609/212 530/584/212
f 530/584/211 542/609/211 543/598/211
f 531/585/210 543/598/210 544/599/210
f 544/599/209 533/587/209 521/573/209
f 545/600/220 546/601/220 534/588/220
f 546/601/219 547/613/219 535/589/219
f 535/589/218 547/613/218 548/602/218
f 536/590/217 548/602/217 549/603/217
f 549/603/216 550/604/216 538/593/216
f 550/604/215 551/618/215 539/605/215
f 551/606/226 552/607/226 540/595/226
f 552/607/225 553/608/225 541/597/225
f 553/608/224 554/610/224 542/609/224
f 554/610/223 555/611/223 543/598/223
f 555/611/222 556/624/222 544/599/222
f 544/599/221 556/624/221 545/600/221
f 545/600/232 557/625/232 558/612/232
f 558/612/231 559/614/231 547/613/231
f 559/614/230 560/615/230 548/602/230
f 560/615/229 561/616/229 549/603/229
f 561/616/228 562/617/228 550/604/228
f 562/617/227 563/630/227 551/618/227
f 563/619/238 564/620/238 552/607/238
f 564/620/237 565/621/237 553/608/237
f 565/621/236 566/622/236 554/610/236
f 566/622/235 567/635/235 555/611/235
f 555/611/234 567/635/234 568/623/234
f 568/623/233 557/625/233 545/600/233
f 557/625/244 569/637/244 570/626/244
f 570/626/243 571/639/243 559/614/243
f 559/614/242 571/639/242 572/627/242
f 560/615/241 572/627/241 573/628/241
f 561/616/240 573/628/240 574/629/240
f 574/629/239 575/643/239 563/630/239
f 575/631/250 576/632/250 564/620/250
f 576/632/249 577/633/249 565/621/249
f 577/633/248 578/634/248 566/622/248
f 578/634/247 579/647/247 567/635/247
f 567/635/246 579/647/246 580/636/246
f 580/636/245 569/637/245 557/625/245
f 569/637/256 581/651/256 582/638/256
f 582/638/255 583/653/255 571/639/255
f 571/639/254 583/653/254 584/640/254
f 584/640/253 585/641/253 573/628/253
f 585/641/252 586/642/252 574/629/252
f 586/642/251 587/658/251 575/643/251
f 587/644/262 588/660/262 576/632/262
f 576/632/261 588/660/261 589/645/261
f 577/633/260 589/645/260 590/646/260
f 590/646/259 591/648/259 579/647/259
f 591/648/258 592/649/258 580/636/258
f 592/649/257 581/651/257 569/637/257
f 593/650/268 594/652/268 582/638/268
f 594/652/267 595/654/267 583/653/267
f 595/654/266 596/655/266 584/640/266
f 596/655/265 597/656/265 585/641/265
f 597/656/264 598/657/264 586/642/264
f 598/657/263 599/669/263 587/658/263
f 599/659/274 600/671/274 588/660/274
f 588/660/273 600/671/273 601/661/273
f 601/661/272 602/662/272 590/646/272
f 602/662/271 603/675/271 591/648/271
f 591/648/270 603/675/270 604/663/270
f 604/663/269 593/650/269 581/651/269
f 605/664/280 606/665/280 594/652/280
f 606/665/279 607/680/279 595/654/279
f 595/654/278 607/680/278 608/666/278
f 608/666/277 609/667/277 597/656/277
f 609/667/276 610/668/276 598/657/276
f 610/668/275 611/685/275 599/669/275
f 611/670/286 612/672/286 600/671/286
f 612/672/285 613/673/285 601/661/285
f 613/673/284 614/674/284 602/662/284
f 614/674/283 615/676/283 603/675/283
f 615/676/282 616/677/282 604/663/282
f 616/677/281 605/664/281 593/650/281
f 617/678/292 618/679/292 606/665/292
f 618/679/291 619/681/291 607/680/291
f 619/681/290 620/682/290 608/666/290
f 620/682/289 621/683/289 609/667/289
f 621/683/288 622/684/288 610/668/288
f 622/684/287 623/696/287 611/685/287
f 623/686/298 624/698/298 612/672/298
f 612/672/297 624/698/297 625/687/297
f 625/687/296 626/688/296 614/674/296
f 626/688/295 627/689/295 615/676/295
f 627/689/294 628/690/294 616/677/294
f 628/690/293 617/678/293 605/664/293
f 617/678/304 629/703/304 630/691/304
f 618/679/303 630/691/303 631/692/303
f 619/681/302 631/692/302 632/693/302
f 632/693/301 633/694/301 621/683/301
f 633/694/300 634/704/300 622/684/300
f 622/684/299 634/704/299 635/695/299
f 635/697/310 636/699/310 624/698/310
f 636/699/309 637/705/309 625/687/309
f 625/687/308 637/705/308 638/700/308
f 638/700/307 639/701/307 627/689/307
f 639/701/306 640/702/306 628/690/306
f 640/702/305 629/703/305 617/678/305
f 65/74/316 66/73/316 630/691/316
f 66/73/315 67/76/315 631/692/315
f 67/76/314 68/77/314 632/693/314
f 68/77/313 69/79/313 633/694/313
f 69/79/312 70/81/312 634/704/312
f 70/81/311 71/83/311 635/695/311
f 635/697/322 71/86/322 72/85/322
f 72/85/321 73/88/321 637/705/321
f 73/88/320 74/90/320 638/700/320
f 74/90/319 75/92/319 639/701/319
f 639/701/318 75/92/318 76/94/318
f 640/702/317 76/94/317 65/74/317
f 2/1/1 4/4/1 3/2/1
f 4/4/2 6/6/2 5/5/2
f 6/6/3 8/8/3 7/7/3
f 8/8/4 10/10/4 9/9/4
f 10/10/5 12/12/5 11/11/5
f 12/12/6 14/14/6 13/13/6
f 14/14/7 16/16/7 15/15/7
f 16/16/8 18/18/8 17/17/8
f 18/18/9 20/20/9 19/19/9
f 20/20/10 22/22/10 21/21/10
f 22/22/11 24/24/11 23/23/11
f 24/24/12 26/26/12 25/25/12
f 26/26/13 28/28/13 27/27/13
f 28/28/14 30/30/14 29/29/14
f 30/30/15 32/32/15 31/31/15
f 32/32/16 34/34/16 33/33/16
f 34/34/17 36/36/17 35/35/17
f 36/36/18 38/38/18 37/37/18
f 38/38/19 40/40/19 39/39/19
f 40/40/20 42/42/20 41/41/20
f 42/42/21 44/44/21 43/43/21
f 44/44/22 46/46/22 45/45/22
f 46/46/23 48/48/23 47/47/23
f 48/48/24 50/50/24 49/49/24
f 50/50/25 52/52/25 51/51/25
f 52/52/26 54/54/26 53/53/26
f 54/54/27 56/56/27 55/55/27
f 56/56/28 58/58/28 57/57/28
f 58/58/29 60/60/29 59/59/29
f 60/60/30 62/65/30 61/61/30
f 6/709/31 4/710/31 62/711/31
f 4/710/31 2/712/31 62/711/31
f 2/712/31 64/713/31 62/711/31
f 62/711/31 60/714/31 58/715/31
f 58/715/31 56/716/31 62/711/31
f 56/716/31 54/62/31 62/711/31
f 54/62/31 52/717/31 50/718/31
f 50/718/31 48/719/31 46/720/31
f 46/720/31 44/721/31 42/722/31
f 42/722/31 40/723/31 38/63/31
f 38/63/31 36/724/31 34/725/31
f 34/725/31 32/726/31 30/727/31
f 30/727/31 28/728/31 26/729/31
f 26/729/31 24/730/31 22/64/31
f 22/64/31 20/731/31 18/732/31
f 18/732/31 16/733/31 14/734/31
f 14/734/31 12/735/31 10/736/31
f 10/736/31 8/737/31 6/709/31
f 54/62/31 50/718/31 38/63/31
f 50/718/31 46/720/31 38/63/31
f 46/720/31 42/722/31 38/63/31
f 38/63/31 34/725/31 30/727/31
f 30/727/31 26/729/31 38/63/31
f 26/729/31 22/64/31 38/63/31
f 22/64/31 18/732/31 6/709/31
f 18/732/31 14/734/31 6/709/31
f 14/734/31 10/736/31 6/709/31
f 6/709/31 62/711/31 54/62/31
f 6/709/31 54/62/31 22/64/31
f 62/65/32 64/67/32 63/66/32
f 64/67/33 2/738/33 1/68/33
f 63/739/34 1/740/34 3/741/34
f 3/741/34 5/742/34 7/743/34
f 7/743/34 9/744/34 11/745/34
f 11/745/34 13/746/34 15/69/34
f 15/69/34 17/747/34 19/748/34
f 19/748/34 21/749/34 23/750/34
f 23/750/34 25/751/34 27/752/34
f 27/752/34 29/753/34 31/70/34
f 31/70/34 33/754/34 35/755/34
f 35/755/34 37/756/34 39/757/34
f 39/757/34 41/758/34 43/759/34
f 43/759/34 45/760/34 47/71/34
f 47/71/34 49/761/34 51/762/34
f 51/762/34 53/763/34 47/71/34
f 53/763/34 55/764/34 47/71/34
f 55/764/34 57/765/34 59/766/34
f 59/766/34 61/767/34 55/764/34
f 61/767/34 63/739/34 55/764/34
f 63/739/34 3/741/34 15/69/34
f 3/741/34 7/743/34 15/69/34
f 7/743/34 11/745/34 15/69/34
f 15/69/34 19/748/34 23/750/34
f 23/750/34 27/752/34 15/69/34
f 27/752/34 31/70/34 15/69/34
f 31/70/34 35/755/34 47/71/34
f 35/755/34 39/757/34 47/71/34
f 39/757/34 43/759/34 47/71/34
f 47/71/34 55/764/34 63/739/34
f 63/739/34 15/69/34 47/71/34
